<?xml version="1.0" encoding="utf-8"?>
<!-- Generator: Adobe Illustrator 16.0.3, SVG Export Plug-In . SVG Version: 6.00 Build 0)  -->
<!DOCTYPE svg PUBLIC "-//W3C//DTD SVG 1.1//EN" "http://www.w3.org/Graphics/SVG/1.1/DTD/svg11.dtd">
<svg version="1.1" xmlns="http://www.w3.org/2000/svg" xmlns:xlink="http://www.w3.org/1999/xlink" x="0px" y="0px" width="500px"
	 height="500px" viewBox="0 0 500 500" style="enable-background:new 0 0 500 500;" xml:space="preserve">
<g id="Background_Complete">
	<g>
		<g>
			<g>
				<g>
					<path style="fill:#F5F5F5;" d="M77.07,445.61c0.87-3.44-1.41-6.88-3.95-9.36s-5.57-4.7-6.91-7.99c-2.16-5.33,0.66-12.26-3-16.7
						c-2.15-2.61-5.99-3.47-7.9-6.26c-1-1.46-1.34-3.27-1.74-5c-2.04-8.82-6.51-17.06-12.78-23.59c-0.39,7.87,1.39,15.83,5.09,22.78
						c1.49,2.79,3.31,5.52,3.82,8.64c0.82,5.07-1.98,10.32-0.71,15.3c1.46,5.69,7.89,9.48,8.22,15.34c0.29,4.96-4.02,9.34-3.67,14.3
						c0.15,2.11,1.14,4.07,2.24,5.87c3.87,6.36,9.54,10.72,18.08,10.53l10.47,0.31L77.07,445.61z"/>
				</g>
			</g>
		</g>
		<g>
			<g>
				<g>
					<g>
						<g>
							<g>
								<path style="fill:#E0E0E0;" d="M86.47,470.06c0,0,1,0.23,2.88-0.08c0.94-0.14,2.09-0.4,3.4-0.88
									c1.3-0.48,2.78-1.17,4.19-2.32c0.68-0.6,1.35-1.34,1.71-2.31c0.35-0.97,0.41-2.04,0.47-3.13c0.05-1.09,0.04-2.23,0.23-3.39
									c0.17-1.15,0.62-2.29,1.26-3.37c1.22-2.17,3.26-4.24,3.9-7.19c0.7-2.9,0.17-6.03-0.34-9.17c-0.5-3.14-0.99-6.56,0.19-9.83
									c1.1-3.28,3.38-6.25,4.51-9.94c1.12-3.73,0.57-7.74,0.79-11.69c0.1-1.99,0.47-3.97,1.33-5.82c0.84-1.86,2-3.61,2.91-5.57
									c1.84-3.95,2.14-8.42,2.62-12.81c0.24-2.21,0.47-4.44,0.71-6.69c0.24-2.26,0.42-4.52,1.13-6.7c0.63-2.2,1.55-4.33,2.47-6.49
									c0.45-1.09,0.92-2.18,1.2-3.39c0.2-1.23,0.25-2.39,0.32-3.6c0.1-2.4-0.01-4.83-0.32-7.24c-0.3-2.41-0.75-4.81-1.02-7.22
									c-0.02-0.14-0.03-0.29-0.05-0.42l-0.06-0.48l-0.43,0.22c-2.23,1.13-4.14,2.82-5.61,4.79c-1.49,1.96-2.57,4.16-3.43,6.4
									c-1.72,4.51-2.33,9.22-3.18,13.72c-0.83,4.5-1.94,8.93-4.23,12.68c-1.14,1.87-2.51,3.58-3.72,5.41
									c-1.2,1.81-2.26,3.8-2.56,5.98c-0.59,4.43,1.87,8.31,1.38,12.23c-0.17,1.95-0.94,3.77-1.88,5.44
									c-0.94,1.68-2.05,3.23-3.1,4.8c-1.05,1.56-2.05,3.15-2.78,4.84c-0.75,1.69-1.15,3.49-1.26,5.25
									c-0.23,3.53,0.28,6.88,0.04,10.04c-0.19,3.17-1.29,6.04-2.53,8.62c-1.25,2.58-2.65,4.92-3.81,7.18
									c-0.59,1.13-1.13,2.24-1.57,3.34c-0.47,1.11-0.69,2.24-0.9,3.31c-0.33,2.17-0.29,4.19-0.04,5.97
									c0.48,3.58,1.83,6.16,3.04,7.6c0.28,0.39,0.6,0.66,0.85,0.91c0.25,0.26,0.49,0.44,0.69,0.58
									C86.26,469.93,86.47,470.06,86.47,470.06c0.05-0.05-0.86-0.53-2.04-1.99c-1.16-1.45-2.45-4.01-2.88-7.55
									c-0.22-1.76-0.24-3.76,0.1-5.89c0.21-1.05,0.45-2.16,0.91-3.24c0.44-1.08,0.99-2.18,1.58-3.3c1.18-2.24,2.59-4.57,3.86-7.17
									c1.27-2.59,2.41-5.52,2.62-8.77c0.26-3.23-0.25-6.59,0-10.04c0.11-1.72,0.51-3.44,1.23-5.08c0.72-1.64,1.7-3.2,2.75-4.75
									c1.05-1.55,2.17-3.12,3.14-4.83c0.97-1.7,1.78-3.6,1.96-5.67c0.48-4.18-1.96-8.08-1.36-12.2c0.29-2.04,1.29-3.94,2.48-5.72
									c1.19-1.79,2.57-3.5,3.74-5.42c2.36-3.86,3.48-8.37,4.33-12.89c0.86-4.53,1.47-9.2,3.16-13.61c0.84-2.19,1.9-4.34,3.34-6.23
									c1.41-1.9,3.24-3.51,5.37-4.59l-0.48-0.26c0.02,0.13,0.03,0.28,0.05,0.42c0.28,2.45,0.73,4.84,1.02,7.23
									c0.31,2.38,0.42,4.77,0.32,7.13c-0.06,1.17-0.13,2.39-0.3,3.49c-0.25,1.1-0.71,2.19-1.16,3.27
									c-0.91,2.16-1.84,4.32-2.49,6.56c-0.71,2.23-0.91,4.57-1.14,6.81c-0.24,2.25-0.47,4.49-0.7,6.7
									c-0.48,4.4-0.78,8.8-2.54,12.62c-0.87,1.9-2.04,3.66-2.9,5.58c-0.89,1.91-1.28,4.01-1.37,6.03
									c-0.21,4.04,0.34,7.99-0.73,11.57c-1.06,3.57-3.33,6.55-4.47,9.93c-1.22,3.42-0.68,6.95-0.17,10.08
									c0.52,3.15,1.05,6.21,0.39,9c-0.59,2.81-2.57,4.86-3.81,7.1c-0.65,1.11-1.11,2.31-1.28,3.51c-0.18,1.19-0.16,2.34-0.2,3.43
									c-0.05,1.08-0.1,2.14-0.43,3.04c-0.32,0.91-0.96,1.62-1.61,2.21c-1.36,1.14-2.81,1.84-4.09,2.34
									c-1.28,0.49-2.42,0.77-3.35,0.93c-0.93,0.17-1.65,0.2-2.13,0.22C86.72,470.05,86.47,470.06,86.47,470.06z"/>
							</g>
						</g>
					</g>
				</g>
				<g>
					<g>
						<g>
							<g>
								<path style="fill:#E0E0E0;" d="M118.84,346.58c-0.01,0-0.05,0.11-0.1,0.32c-0.06,0.25-0.13,0.56-0.23,0.94
									c-0.2,0.83-0.44,2.07-0.83,3.63c-0.4,1.55-1.34,3.31-2.14,5.48c-0.83,2.15-1.67,4.64-2.45,7.44
									c-0.78,2.79-1.47,5.9-2.19,9.22c-0.74,3.32-1.48,6.88-3.29,10.24c-0.85,1.71-1.8,3.43-2.56,5.32
									c-0.78,1.89-1.19,3.95-1.47,6.01c-0.48,4.15-1.22,8.36-2.18,12.67c-2.05,8.59-4,16.77-5.78,24.22
									c-1.82,7.42-3.46,14.11-4.85,19.75c-1.35,5.59-2.44,10.13-3.21,13.33c-0.36,1.54-0.64,2.75-0.84,3.63
									c-0.08,0.38-0.15,0.7-0.2,0.95c-0.04,0.21-0.06,0.33-0.05,0.33c0.01,0,0.05-0.1,0.11-0.31c0.07-0.25,0.16-0.55,0.27-0.93
									c0.23-0.88,0.56-2.08,0.96-3.6c0.82-3.19,1.99-7.71,3.42-13.28c1.42-5.63,3.11-12.31,4.99-19.72
									c1.8-7.45,3.77-15.63,5.84-24.22c0.97-4.31,1.71-8.6,2.18-12.73c0.28-2.05,0.67-4.04,1.42-5.87
									c0.73-1.84,1.67-3.56,2.52-5.28c1.82-3.43,2.57-7.09,3.28-10.4c0.7-3.33,1.36-6.43,2.11-9.22c0.74-2.79,1.54-5.28,2.34-7.43
									c0.76-2.16,1.67-3.94,2.04-5.54c0.35-1.59,0.55-2.83,0.71-3.67c0.06-0.39,0.12-0.7,0.16-0.96
									C118.84,346.69,118.85,346.58,118.84,346.58z"/>
							</g>
						</g>
					</g>
				</g>
			</g>
			<g>
				<g>
					<g>
						<g>
							<path style="fill:#E0E0E0;" d="M88.32,470.08c6.81-4.1,8.7-16.45,5.81-23.85c-2.89-7.41-7.92-14.16-8.74-22.07
								c-0.63-6.08,1.33-12.34-0.12-18.28c-1.96-8.01-9.83-14.19-9.79-22.44c0.02-4.63,2.63-9,2.4-13.62
								c-0.29-5.67-4.67-10.15-7.39-15.13c-4.17-7.63-4.49-16.67-5.95-25.23s-4.78-17.73-12.4-21.9
								c-1.08,7.29-2.97,12.28-2.31,22.14c0.24,3.54,4.39,10.3,4.99,18.06c0.36,4.64,0.62,9.28,0.93,13.93
								c0.3,4.52,0.62,9.12,2.26,13.33c1.26,3.23,3.27,6.16,4.21,9.5c1.77,6.28-0.47,13.11,0.97,19.48
								c1.22,5.39,4.98,10.02,5.78,15.49c1.12,7.69-3.82,15.71-1.23,23.04c1.29,3.64,4.3,6.54,5.17,10.3
								c0.68,2.91-0.03,6.01,0.59,8.93c0.99,4.72,10.02,8.33,14.83,8.01"/>
						</g>
					</g>
				</g>
				<g>
					<g>
						<g>
							<g>
								<path style="fill:#EBEBEB;" d="M54.06,314.77c-0.01,0,0,0.14,0.03,0.41c0.04,0.31,0.09,0.7,0.16,1.2
									c0.16,1.05,0.35,2.59,0.71,4.59c0.39,2.01,1.44,4.26,2.28,6.98c0.89,2.71,1.77,5.84,2.56,9.35c0.8,3.5,1.48,7.38,2.18,11.56
									c0.73,4.14,1.48,8.72,3.58,13.06c0.97,2.18,2.06,4.36,2.88,6.69c0.84,2.32,1.24,4.81,1.48,7.38
									c0.38,5.16,1.1,10.51,2.1,15.91c2.16,10.78,4.21,21.04,6.08,30.38c1.97,9.3,3.74,17.69,5.23,24.74
									c1.5,7.01,2.73,12.69,3.58,16.67c0.43,1.93,0.77,3.45,1.01,4.53c0.12,0.49,0.21,0.87,0.28,1.17
									c0.07,0.26,0.11,0.4,0.12,0.39c0.01,0-0.01-0.14-0.05-0.41c-0.05-0.3-0.13-0.69-0.21-1.19c-0.21-1.08-0.51-2.61-0.88-4.55
									c-0.81-3.99-1.96-9.69-3.37-16.71c-1.45-7.07-3.17-15.46-5.09-24.77c-1.85-9.34-3.88-19.6-6.02-30.37
									c-1-5.4-1.71-10.69-2.1-15.86c-0.25-2.58-0.66-5.15-1.53-7.53c-0.85-2.38-1.95-4.56-2.92-6.73
									c-2.08-4.27-2.83-8.75-3.59-12.9c-0.73-4.17-1.44-8.06-2.27-11.57c-0.82-3.51-1.74-6.65-2.67-9.36
									c-0.88-2.73-1.96-4.96-2.38-6.92c-0.4-1.96-0.63-3.52-0.84-4.55c-0.09-0.49-0.17-0.88-0.23-1.18
									C54.1,314.9,54.07,314.77,54.06,314.77z"/>
							</g>
						</g>
					</g>
				</g>
			</g>
		</g>
	</g>
	<g>
		<path style="fill:#E0E0E0;" d="M210.31,55.23c5.84-6.81,21.02-2.53,31.42,3.04c0,0,7.16,3.38,9.82,5.13
			c0.03,0.01,0.06,0.01,0.09,0.02l24.32-3.04c1.98-0.25,3.98,0.1,5.75,1.01l1.99,1.02c1.01,0.51,0.96,1.97-0.08,2.41l-17.91,7.65
			c-0.01,0.1-0.01,0.12-0.02,0.22c9.52,6.26,17.68,11.61,17.68,11.61c0.09,0.06,0.18,0.12,0.26,0.17c3.33,2.13,7.35,2.94,11.26,2.24
			l9.47-1.69c0.48-0.09,0.98-0.06,1.43,0.12c1.68,0.69,2.01,2.9,0.63,4.05l-10.97,9.17c-1.72,1.44-4.11,1.75-6.14,0.82l-5.13-2.36
			l-25.98-12.37l2.98,14.79c0.11,0.61-0.37,1.17-0.99,1.14l-1.22-0.04c-1.68-0.06-3.2-0.98-4.04-2.44l-10.47-20l-30.65-14.6
			C209.73,61.43,208.27,57.92,210.31,55.23z"/>
	</g>
	<g>
		<g>
			<g>
				<path style="fill:#F5F5F5;" d="M39.98,120.71l77.13-1.74c0,0-7.1-12.26-26.91-10c-18.92,2.15-20.06-5.66-29.72-6.4
					C50.81,101.82,42.94,109.39,39.98,120.71z"/>
			</g>
		</g>
	</g>
	<g>
		<g>
			<g>
				<path style="fill:#F5F5F5;" d="M400.58,162.42h72.66c0,0-6.42-11.69-25.13-9.99c-17.86,1.63-18.77-5.75-27.85-6.66
					S403.6,151.82,400.58,162.42z"/>
			</g>
		</g>
	</g>
	<g>
		<g>
			<g>
				<path style="fill:#F5F5F5;" d="M83.91,82.44h55.43c0,0-4.9-8.92-19.17-7.62c-13.63,1.24-14.32-4.39-21.25-5.08
					C91.99,69.04,86.22,74.35,83.91,82.44z"/>
			</g>
		</g>
	</g>
	<g>
		<g>
			<g>
				<path style="fill:#F5F5F5;" d="M400.65,199.08h36.26c0,0-3.21-5.83-12.54-4.99c-8.91,0.81-9.37-2.87-13.9-3.32
					C405.93,190.31,402.16,193.79,400.65,199.08z"/>
			</g>
		</g>
	</g>
	<g>
		<g>
			<g>
				<path style="fill:#FAFAFA;" d="M382.52,98.72h36.26c0,0-3.21-5.83-12.54-4.99c-8.91,0.81-9.37-2.87-13.9-3.32
					S384.03,93.43,382.52,98.72z"/>
			</g>
		</g>
	</g>
</g>
<g id="Background_Simple" style="display:none;">
	<path style="display:inline;fill:#EBEBEB;" d="M446.13,221.14c-15.23-29.1-47.09-49.61-79.91-48.35
		c-18.86,0.73-38.54,8.01-55.98,0.79c-21.69-8.99-28.94-35.26-41.06-55.37c-23.09-38.29-71.95-57.89-115.89-49.58
		c-43.94,8.3-81.18,42.28-96.98,84.12s-11.07,90.13,9.16,130c20.23,39.88,55.05,71.45,95.07,91.41c6.25,3.12,12.63,5.96,19.1,8.55
		c47.79,19.07,100.27,23.05,150.65,12.57l23.35-4.86c33.81-7.03,63.93-26.62,83.17-55.3c3.99-5.94,7.49-12.21,10.43-18.76
		C460.66,286.37,461.36,250.24,446.13,221.14z"/>
</g>
<g id="Floor">
	<g>
		<path style="fill:#263238;" d="M474.44,470.14c0,0.14-100.94,0.26-225.42,0.26c-124.53,0-225.45-0.12-225.45-0.26
			s100.92-0.26,225.45-0.26C373.5,469.88,474.44,470,474.44,470.14z"/>
	</g>
</g>
<g id="Character_2">
	<g>
		<g>
			<path style="fill:#263238;" d="M405.35,293.8L405.35,293.8c-0.15-1.44-1.37-2.54-2.82-2.54l-21.35,0.02
				c-1.78,0-3.11,1.63-2.77,3.37l0,0c0.27,1.35,1.46,2.31,2.84,2.27l21.28,0C404.21,296.93,405.52,295.47,405.35,293.8z"/>
			<g>
				<g>
					<g>
						<g>
							<circle style="fill:#263238;" cx="458.66" cy="464.13" r="6.81"/>
						</g>
						<g>
							<polygon style="fill:#455A64;" points="457.24,464.17 453.09,455.59 455.27,454.2 459.29,463.16 							"/>
						</g>
						<g>
							<polygon style="fill:#263238;" points="418.78,358.54 392.99,291.26 388.09,293.71 413.08,360.39 							"/>
						</g>
						<g>
							<path style="fill:#C14953;" d="M440.27,462.52l38.07-15.12c1.42-0.56,2.11-2.17,1.55-3.59L442,348.43
								c-2.98-7.5-11.48-11.17-18.99-8.19l-16.03,6.37c-7.5,2.98-11.17,11.48-8.19,18.99l37.89,95.38
								C437.25,462.39,438.85,463.09,440.27,462.52z"/>
						</g>
						<g>
							<g>
								<path style="fill:#263238;" d="M436.6,461.45c0,0-0.06-0.2-0.2-0.58c-0.15-0.4-0.36-0.97-0.63-1.69
									c-0.58-1.51-1.41-3.69-2.48-6.49c-2.19-5.64-5.34-13.77-9.23-23.81c-3.92-10.05-8.59-22.01-13.76-35.29
									c-2.6-6.64-5.32-13.61-8.15-20.83c-0.71-1.81-1.42-3.63-2.14-5.46c-0.76-1.79-1.01-3.76-0.8-5.7
									c0.46-3.89,3.17-7.48,6.93-8.93c3.75-1.49,8.18-0.71,11.16,1.83c1.47,1.28,2.63,2.89,3.29,4.72
									c0.72,1.84,1.44,3.66,2.14,5.46c2.84,7.22,5.57,14.19,8.18,20.82c5.22,13.26,9.93,25.2,13.88,35.24
									c3.97,10.01,7.18,18.11,9.41,23.74c1.12,2.78,1.99,4.95,2.58,6.44c0.29,0.72,0.52,1.27,0.69,1.67
									c0.16,0.38,0.25,0.56,0.25,0.56s-0.06-0.2-0.2-0.58c-0.15-0.4-0.36-0.96-0.63-1.69c-0.58-1.51-1.41-3.69-2.48-6.48
									c-2.19-5.64-5.34-13.77-9.23-23.81c-3.92-10.05-8.59-22.01-13.77-35.29c-2.6-6.64-5.32-13.61-8.15-20.83
									c-0.71-1.81-1.42-3.63-2.14-5.47c-0.68-1.89-1.9-3.62-3.45-4.96c-3.14-2.68-7.81-3.51-11.76-1.93
									c-3.96,1.53-6.82,5.32-7.3,9.41c-0.23,2.04,0.05,4.14,0.84,5.98c0.72,1.84,1.44,3.66,2.14,5.46
									c2.84,7.22,5.57,14.18,8.18,20.82c5.22,13.26,9.93,25.2,13.88,35.24c3.97,10.01,7.18,18.11,9.41,23.74
									c1.12,2.78,1.99,4.95,2.59,6.45c0.29,0.72,0.52,1.27,0.69,1.67C436.5,461.27,436.6,461.45,436.6,461.45z"/>
							</g>
						</g>
						<g>
							<g>
								<path style="fill:#263238;" d="M434.14,393.67c0.08,0.26,5.06-1.71,11.13-4.38c6.07-2.68,10.92-5.05,10.84-5.31
									c-0.08-0.26-5.06,1.71-11.13,4.38C438.91,391.04,434.06,393.41,434.14,393.67z"/>
							</g>
						</g>
					</g>
				</g>
			</g>
			<g>
				<path style="fill:#FFBE9D;" d="M400.44,291.26l-4.46-8.8c-0.49-0.99-1.33-1.76-2.34-2.18l-7.01-2.91l-18.86-25.59l-1.76,19.59
					l12.03,12.4c0,0,7.53,15.86,13.68,15.05c0,0-0.21-2.33-1.23-4.1c-2-3.45,0.13-3.45,0.41-3.44l5.11,0.01L400.44,291.26z"/>
				<path style="fill:#E8505B;" d="M369.65,277.72c0.57,0.85,5.24,7.17,5.24,7.17l13.21-9.61l-4.8-4.69L369.65,277.72z"/>
			</g>
			<path style="fill:#FFBE9D;" d="M390.48,294.71c0,0,3.43,1.95,3.86,3.62v0.99l-4.12-0.6L390.48,294.71z"/>
			<path style="fill:#FFBE9D;" d="M395.09,296.59c-0.57-0.52-1.15-1.08-1.38-1.82c-0.23-0.74,0.05-1.69,0.78-1.94
				c0.71-0.24,1.45,0.28,2,0.78c0.71,0.64,1.38,1.31,2.01,2.02c0.53,0.59,1.06,1.33,0.87,2.09c-0.15,0.62-0.77,1.04-1.41,1.08
				c-0.63,0.04-1.25-0.26-1.71-0.69s-0.78-1-1.05-1.57"/>
			<path style="fill:#FFBE9D;" d="M398.58,296.29c-0.57-0.53-1.15-1.08-1.38-1.82c-0.23-0.74,0.05-1.69,0.78-1.94
				c0.71-0.24,1.45,0.28,2,0.78c0.71,0.64,1.38,1.31,2.01,2.02c0.52,0.59,1.06,1.33,0.87,2.09c-0.15,0.61-0.77,1.04-1.41,1.08
				s-1.25-0.26-1.71-0.69s-0.78-1-1.05-1.57"/>
			<g>
				<path style="fill:#EB996E;" d="M388.09,281.27c-0.01-0.12,0.89-0.07,1.92,0.82c0.49,0.5,0.8,1.19,1.2,1.94
					c0.37,0.76,0.75,1.69,0.68,2.74c-0.08,1.07-0.66,1.9-1.08,2.6c-0.44,0.68-0.67,1.39-0.82,1.98c-0.31,1.21-0.07,1.97-0.14,1.99
					c-0.06,0.04-0.45-0.76-0.22-2.07c0.11-0.64,0.32-1.41,0.77-2.15c0.41-0.73,0.92-1.5,0.97-2.4c0.06-0.9-0.26-1.76-0.59-2.5
					c-0.36-0.74-0.66-1.46-1.03-1.9c-0.4-0.42-0.86-0.69-1.15-0.85C388.28,281.31,388.1,281.3,388.09,281.27z"/>
			</g>
		</g>
		<g>
			<g>
				<polygon style="fill:#F5F5F5;" points="245.77,191.01 231.76,235.83 273,278.9 310.79,269.08 				"/>
				<g>
					<path style="fill:#263238;" d="M245.77,191.01c0,0,0.11,0.12,0.32,0.37c0.22,0.27,0.54,0.64,0.95,1.12
						c0.85,1.01,2.08,2.48,3.68,4.38c3.22,3.84,7.89,9.41,13.71,16.35c11.69,13.98,28,33.49,46.56,55.69l0.26,0.31l-0.39,0.1
						c-6.86,1.79-14.01,3.64-21.3,5.54c-5.61,1.46-11.12,2.89-16.49,4.28l-0.15,0.04l-0.1-0.11c-15.54-16.27-29.7-31.08-41.2-43.12
						l-0.08-0.09l0.04-0.11c4.35-13.73,7.9-24.94,10.37-32.74c1.23-3.85,2.18-6.86,2.84-8.93c0.32-1,0.57-1.77,0.74-2.31
						C245.69,191.27,245.77,191.01,245.77,191.01c-0.48,1.56-5.42,17.6-13.82,44.87l-0.05-0.2c11.52,12.01,25.7,26.8,41.27,43.04
						l-0.25-0.07c5.36-1.39,10.88-2.83,16.49-4.29c7.3-1.9,14.44-3.75,21.31-5.53l-0.13,0.41c-18.42-22.2-34.6-41.71-46.2-55.69
						c-5.79-7-10.44-12.62-13.65-16.5c-1.59-1.93-2.83-3.43-3.68-4.46c-0.41-0.5-0.73-0.89-0.96-1.17
						C245.89,191.16,245.77,191.01,245.77,191.01z"/>
				</g>
			</g>
			<path style="fill:#E0E0E0;" d="M247.06,220.57c1.96-3.38,7.08-4.39,10.17-2c2.58,1.99,3.76,5.77,6.87,6.77
				c2.24,0.72,4.71-0.33,7.03,0.09c2.71,0.49,4.73,2.95,5.52,5.6c0.79,2.64,0.57,5.47,0.35,8.22l-13.42,0.19L247.06,220.57z"/>
			<g>
				<polygon style="fill:#F5F5F5;" points="222.27,195.1 309.16,284.65 273.75,281.06 224.22,228.77 				"/>
				<g>
					<path style="fill:#263238;" d="M222.27,195.1c0.08,1.31,0.81,12.83,2.12,33.65l-0.05-0.11c12.66,13.34,29.98,31.58,49.59,52.24
						l-0.16-0.08c8.75,0.89,17.85,1.8,27.16,2.75c2.83,0.29,5.63,0.57,8.25,0.84l-0.21,0.44
						C260.65,234.82,224.18,197.09,222.27,195.1c1.92,1.97,38.55,39.56,87.08,89.37l0.5,0.51l-0.71-0.07
						c-2.62-0.27-5.42-0.55-8.25-0.83c-9.32-0.95-18.41-1.87-27.16-2.76l-0.09-0.01l-0.06-0.07
						c-19.57-20.71-36.84-38.98-49.47-52.35l-0.04-0.05l0-0.06C222.94,207.94,222.33,196.41,222.27,195.1z"/>
				</g>
			</g>
			<path style="fill:#E0E0E0;" d="M256.27,230.69c-2.68,3.09-2.29,8.02,0,11.41c2.3,3.39,6.07,5.47,9.89,6.94
				c3.09,1.19,6.9,1.94,9.45-0.16"/>
			<path style="fill:#E0E0E0;" d="M251.75,225.82c0.16,0.75-0.78,1.3-1.54,1.23c-0.76-0.07-1.46-0.49-2.23-0.54
				c-2.09-0.12-3.23,2.36-4.93,3.57c-1.99,1.41-5.12,0.81-6.44-1.25c-1.14-1.77-1.11-4.39-2.91-5.49c-1-0.61-2.26-0.52-3.4-0.31
				c-1.15,0.22-2.31,0.55-3.46,0.36c-1.15-0.18-2.3-1.08-2.3-2.24l-0.62-0.98l-1.49-24.71L251.75,225.82z"/>
			<path style="fill:#E0E0E0;" d="M294.1,282.84c1.96,0.34,3.84-0.66,4.14-2.63c0.3-1.97-1.25-4.03-3.22-4.29
				c-1.77-0.23-3.6,0.79-5.31,0.26c-1.94-0.6-2.74-2.86-3.23-4.82c-0.49-1.97-1.17-4.22-3.05-4.98c-3.12-1.26-6.4,2.73-9.64,1.85
				c-2.41-0.65-3.34-3.54-5.23-5.18c-1.51-1.31-3.73-1.75-5.63-1.11c-1.9,0.64-3.01,1.71-3.42,3.67l14.34,15.13L294.1,282.84z"/>
		</g>
		<g>
			<g>
				<path style="fill:#C14953;" d="M270.34,434.18l-3.57,20.58c0,0-22.12,3.28-23.15,7.02l39.66,8.36l6.88-31.84L270.34,434.18z"/>
				<g style="opacity:0.6;">
					<path style="fill:#FFFFFF;" d="M279.4,455.63c0.72,0.37,1.07,1.35,0.73,2.08c-0.34,0.74-1.33,1.1-2.06,0.74
						c-0.73-0.36-1.18-1.52-0.76-2.21s1.61-1.06,2.23-0.53"/>
				</g>
				<path style="opacity:0.6;fill:#FFFFFF;" d="M283.28,470.14l0.69-3.17l-38.36-6.86c0,0-1.93,0.4-1.99,1.68L283.28,470.14z"/>
				<g>
					<path style="fill:#263238;" d="M266.17,454.42c-0.04,0.19,0.92,0.49,1.74,1.31c0.84,0.8,1.16,1.74,1.35,1.71
						c0.19,0,0.14-1.22-0.87-2.2C267.39,454.25,266.17,454.24,266.17,454.42z"/>
				</g>
				<g>
					<path style="fill:#263238;" d="M261.65,455.27c-0.08,0.18,0.69,0.68,1.17,1.64c0.51,0.94,0.49,1.86,0.69,1.9
						c0.18,0.07,0.55-1.04-0.08-2.22C262.82,455.41,261.69,455.08,261.65,455.27z"/>
				</g>
				<g>
					<path style="fill:#263238;" d="M258.24,459.75c0.17,0.08,0.64-0.83,0.37-2c-0.27-1.17-1.09-1.78-1.21-1.63
						c-0.14,0.14,0.33,0.83,0.54,1.79C258.17,458.86,258.05,459.69,258.24,459.75z"/>
				</g>
				<g>
					<path style="fill:#263238;" d="M267.51,449.82c0.04,0.19,0.99,0.11,2.07,0.42c1.08,0.28,1.86,0.83,2,0.69
						c0.14-0.12-0.54-1.01-1.81-1.35C268.48,449.23,267.44,449.65,267.51,449.82z"/>
				</g>
			</g>
			<polygon style="opacity:0.3;" points="269.64,438.26 269,441.92 288.53,445.85 289.25,442.58 			"/>
			<g>
				<path style="fill:#263238;" d="M268.3,445.68c-0.02,0.08,0.72,0.36,1.99,0.41c0.63,0.02,1.39-0.03,2.21-0.2
					c0.41-0.09,0.84-0.21,1.27-0.37c0.21-0.08,0.45-0.15,0.7-0.34c0.26-0.16,0.49-0.64,0.31-1.01c-0.14-0.35-0.47-0.55-0.75-0.62
					c-0.29-0.07-0.54-0.06-0.77-0.05c-0.46,0.01-0.91,0.07-1.32,0.16c-0.83,0.18-1.54,0.49-2.08,0.82c-1.1,0.66-1.57,1.32-1.51,1.37
					c0.07,0.08,0.65-0.43,1.73-0.94c0.54-0.25,1.21-0.49,1.98-0.63c0.38-0.07,0.79-0.11,1.21-0.11c0.44-0.02,0.8,0.05,0.87,0.26
					c0.02,0.08,0.02,0.11-0.09,0.21c-0.12,0.09-0.31,0.17-0.51,0.25c-0.4,0.16-0.79,0.28-1.18,0.38c-0.76,0.2-1.47,0.29-2.08,0.33
					C269.08,445.68,268.32,445.58,268.3,445.68z"/>
			</g>
			<g>
				<path style="fill:#263238;" d="M268.5,446.02c0.06,0.04,0.59-0.57,0.93-1.81c0.17-0.61,0.26-1.38,0.19-2.23
					c-0.04-0.42-0.12-0.87-0.25-1.31c-0.15-0.44-0.32-1.03-1.06-1.27c-0.39-0.1-0.78,0.14-0.95,0.38c-0.19,0.24-0.26,0.47-0.36,0.69
					c-0.17,0.45-0.26,0.9-0.28,1.34c-0.05,0.87,0.14,1.65,0.42,2.23c0.56,1.19,1.32,1.59,1.35,1.53c0.08-0.08-0.51-0.6-0.9-1.71
					c-0.19-0.55-0.31-1.25-0.24-2c0.04-0.38,0.13-0.76,0.28-1.14c0.15-0.41,0.38-0.71,0.53-0.64c0.2,0.04,0.47,0.43,0.56,0.8
					c0.13,0.4,0.21,0.8,0.27,1.18c0.1,0.77,0.06,1.48-0.03,2.06C268.76,445.28,268.4,445.96,268.5,446.02z"/>
			</g>
		</g>
		<g>
			<g>
				<g>
					<path style="fill:#C14953;" d="M400.66,435.43l-8.58-11.2l-0.45-0.58l-14.61,10.87l13.53,14.86l-0.5,15.04
						c-7.54,1.95-8.67,5.71-8.67,5.71l15.66-0.02l14.23-27.41L400.66,435.43z"/>
					<polygon style="opacity:0.6;fill:#FFFFFF;" points="411.29,442.72 397.06,470.12 381.4,470.14 383.16,467.78 395.9,467.07 
						409.03,441.17 					"/>
				</g>
				<g>
					<path style="fill:#263238;" d="M390.16,457.53c0.12,0.16,1.02-0.35,2.23-0.32c1.21,0,2.1,0.54,2.22,0.38
						c0.15-0.12-0.74-1.06-2.21-1.07C390.93,456.5,390.02,457.41,390.16,457.53z"/>
				</g>
				<g>
					<path style="fill:#263238;" d="M390.41,453.8c0.16,0.11,0.85-0.81,2.1-1.06c1.25-0.26,2.25,0.33,2.35,0.16
						c0.05-0.07-0.13-0.33-0.57-0.57c-0.43-0.24-1.15-0.42-1.92-0.27c-0.77,0.16-1.36,0.6-1.67,0.99
						C390.4,453.45,390.33,453.76,390.41,453.8z"/>
				</g>
				<g>
					<path style="fill:#263238;" d="M390.31,449.01c0.17,0.09,0.71-0.82,1.8-1.2c1.09-0.39,2.07-0.02,2.15-0.2
						c0.04-0.08-0.16-0.3-0.59-0.46c-0.43-0.16-1.1-0.23-1.79,0.01c-0.69,0.24-1.17,0.72-1.4,1.12
						C390.24,448.68,390.22,448.98,390.31,449.01z"/>
				</g>
				<g>
					<path style="fill:#263238;" d="M386.11,445.3c0.19,0.07,0.63-0.83,1.6-1.46c0.95-0.66,1.95-0.72,1.96-0.92
						c0.05-0.18-1.16-0.45-2.34,0.35C386.14,444.05,385.92,445.28,386.11,445.3z"/>
				</g>
				<g>
					<path style="fill:#263238;" d="M384.07,442.08c0.08,0.05,0.6-0.58,1.37-1.64c0.43-0.62,0.87-1.24,1.32-1.88
						c0.23-0.37,0.54-0.69,0.73-1.27c0.08-0.29,0.08-0.64-0.1-0.95c-0.16-0.33-0.6-0.54-0.95-0.49c-0.68,0.1-1.06,0.45-1.46,0.76
						c-0.38,0.33-0.7,0.71-0.95,1.09c-0.5,0.77-0.74,1.58-0.82,2.26c-0.15,1.39,0.3,2.17,0.36,2.14c0.12-0.03-0.14-0.83,0.13-2.06
						c0.13-0.61,0.39-1.32,0.86-1.98c0.24-0.33,0.52-0.65,0.86-0.93c0.33-0.27,0.76-0.56,1.08-0.59c0.16-0.01,0.23,0.03,0.3,0.14
						c0.07,0.12,0.08,0.28,0.04,0.44c-0.08,0.33-0.39,0.72-0.6,1.09c-0.41,0.67-0.8,1.32-1.2,1.97
						C384.36,441.31,383.99,442.03,384.07,442.08z"/>
				</g>
				<g>
					<path style="fill:#263238;" d="M383.51,442.55c0.07,0,0.01-0.83-0.83-1.77c-0.83-0.89-2.64-1.84-4.64-0.84
						c-0.14,0.12-0.26,0.35-0.24,0.56c0.01,0.22,0.1,0.38,0.19,0.5c0.19,0.24,0.39,0.36,0.56,0.49c0.36,0.25,0.74,0.46,1.11,0.63
						c0.74,0.34,1.46,0.51,2.06,0.57c1.22,0.13,1.95-0.11,1.94-0.18c-0.01-0.11-0.74-0.06-1.86-0.3c-0.55-0.12-1.2-0.33-1.86-0.67
						c-0.33-0.17-0.67-0.37-0.99-0.61c-0.17-0.13-0.33-0.24-0.41-0.35c-0.08-0.14-0.06-0.1-0.03-0.14c0.05-0.06,0.26-0.12,0.45-0.17
						c0.19-0.05,0.39-0.08,0.58-0.09c0.39-0.03,0.76,0,1.11,0.08c0.7,0.15,1.27,0.49,1.69,0.86
						C383.17,441.87,383.4,442.59,383.51,442.55z"/>
				</g>
				<circle style="opacity:0.6;fill:#FFFFFF;" cx="400.65" cy="442.25" r="1.86"/>
			</g>
			<polygon style="opacity:0.3;" points="378.39,436.01 381.4,439.32 394.05,426.79 392.29,424.5 			"/>
		</g>
		<g>
			<g>
				<g>
					<g>
						<path style="fill:#E8505B;" d="M339.45,175.21c8.29-2.9,17.43-3.31,25.95-1.18c3.81,0.95,7.68,2.54,10.13,5.61
							c2.89,3.64,3.25,8.6,3.7,13.23c0.9,9.41,2.64,18.74,5.18,27.85c2.12,7.58,4.8,15.04,5.95,22.83s0.62,16.12-3.35,22.92
							c-6.12,10.48-19.13,15.11-31.26,15.32c-6.39,0.11-12.92-0.83-18.58-3.78c-5.66-2.96-10.37-8.13-11.75-14.37"/>
					</g>
					<g style="opacity:0.5;">
						<g>
							<path d="M339.45,175.21c8.29-2.9,17.43-3.31,25.95-1.18c3.81,0.95,7.68,2.54,10.13,5.61c2.89,3.64,3.25,8.6,3.7,13.23
								c0.9,9.41,2.64,18.74,5.18,27.85c2.12,7.58,4.8,15.04,5.95,22.83s0.62,16.12-3.35,22.92c-6.12,10.48-19.13,15.11-31.26,15.32
								c-6.39,0.11-12.92-0.83-18.58-3.78c-5.66-2.96-10.37-8.13-11.75-14.37"/>
						</g>
					</g>
				</g>
				<g>
					<g>
						<path style="fill:#E0E0E0;" d="M356.13,184.81c-0.08,0.09,1.67,1.19,3.47,3.89c0.91,1.34,1.8,3.04,2.71,4.99
							c0.92,1.94,1.87,4.13,3.23,6.26c1.36,2.12,3.08,3.92,5.01,5.02c1.92,1.13,4.04,1.4,5.68,1.11c1.66-0.27,2.88-1,3.55-1.63
							c0.34-0.31,0.57-0.6,0.7-0.8c0.13-0.2,0.19-0.32,0.18-0.33c-0.05-0.04-0.34,0.38-1.04,0.94c-0.69,0.55-1.87,1.18-3.45,1.37
							c-1.57,0.21-3.51-0.08-5.32-1.17c-1.81-1.06-3.45-2.79-4.77-4.85c-1.32-2.07-2.28-4.24-3.23-6.17c-0.94-1.94-1.89-3.67-2.87-5
							c-0.97-1.34-1.92-2.28-2.65-2.86C356.6,185.01,356.15,184.78,356.13,184.81z"/>
					</g>
				</g>
				<g>
					<g>
						<path style="fill:#E0E0E0;" d="M373.7,278.48c0.02,0,0.03-0.27,0.03-0.78c-0.01-0.58-0.02-1.32-0.04-2.24
							c-0.04-1.95-0.15-4.76-0.3-8.24c-0.3-6.95-0.85-16.55-1.68-27.14c-0.83-10.59-1.79-20.16-2.58-27.07
							c-0.39-3.46-0.73-6.25-0.99-8.18c-0.13-0.91-0.23-1.64-0.31-2.22c-0.08-0.51-0.13-0.77-0.15-0.77c-0.02,0-0.01,0.27,0.02,0.78
							c0.05,0.58,0.11,1.32,0.19,2.23c0.19,2.02,0.46,4.8,0.79,8.2c0.67,6.92,1.56,16.49,2.39,27.07
							c0.83,10.58,1.45,20.17,1.87,27.11c0.21,3.41,0.38,6.2,0.5,8.22c0.06,0.92,0.12,1.66,0.16,2.24
							C373.65,278.21,373.68,278.48,373.7,278.48z"/>
					</g>
				</g>
				<g>
					<g>
						<path style="fill:#E0E0E0;" d="M371.21,235.96c0.01,0.17,3.84,0.13,8.51-0.46c4.68-0.58,8.4-1.47,8.37-1.63
							c-0.04-0.18-3.79,0.42-8.45,0.99C374.99,235.44,371.2,235.78,371.21,235.96z"/>
					</g>
				</g>
				<g>
					<g>
						<path style="fill:#E0E0E0;" d="M374.3,235.87c-0.08-0.02-0.33,0.67-0.52,1.82c-0.1,0.58-0.18,1.27-0.21,2.05
							c-0.01,0.39,0,0.85,0.21,1.31c0.21,0.47,0.7,0.86,1.3,0.87c0.3,0.01,0.63-0.14,0.82-0.38c0.2-0.24,0.27-0.52,0.29-0.76
							c0.04-0.5-0.09-0.91-0.18-1.28c-0.19-0.76-0.44-1.42-0.68-1.95c-0.49-1.07-0.95-1.64-1.02-1.6c-0.08,0.05,0.23,0.69,0.59,1.77
							c0.18,0.54,0.38,1.19,0.53,1.92c0.07,0.37,0.16,0.75,0.13,1.09c-0.03,0.34-0.21,0.55-0.48,0.55
							c-0.68-0.02-0.95-0.81-0.92-1.53c0-0.75,0.03-1.43,0.06-2C374.31,236.6,374.39,235.89,374.3,235.87z"/>
					</g>
				</g>
			</g>
			<g>
				<g>
					<path style="fill:#455A64;" d="M331.2,178.84l40.17-4.69c5.26-0.61,9.03-5.38,8.42-10.64l-0.87-7.45
						c-0.61-5.26-5.38-9.03-10.64-8.42l-40.17,4.69c-5.26,0.61-9.03,5.38-8.42,10.64l0.87,7.45
						C321.18,175.69,325.94,179.46,331.2,178.84z"/>
				</g>
				<g>
					<g>
						<path style="fill:#263238;" d="M367.61,148.27c0.01-0.02-0.12-0.08-0.38-0.17c-0.26-0.08-0.66-0.16-1.18-0.18
							c-1.03-0.03-2.61,0.29-4.11,1.43c-1.46,1.1-3.16,2.67-4.14,4.97c-1.02,2.26-1.35,5.03-1.14,7.83c0.16,2.84,1.19,5.48,2.7,7.44
							c1.51,1.97,3.48,3.21,5.25,3.78c1.77,0.59,3.32,0.61,4.34,0.48c0.51-0.06,0.91-0.16,1.16-0.23c0.26-0.08,0.39-0.13,0.39-0.15
							c-0.01-0.06-0.56,0.08-1.57,0.14c-1,0.06-2.48-0.04-4.16-0.66c-1.68-0.6-3.52-1.81-4.93-3.71c-1.42-1.88-2.37-4.39-2.53-7.12
							c-0.21-2.74,0.1-5.38,1.04-7.55c0.89-2.19,2.48-3.73,3.87-4.84c1.4-1.13,2.86-1.49,3.84-1.54
							C367.05,148.14,367.6,148.33,367.61,148.27z"/>
					</g>
				</g>
				<g>
					<path style="fill:#263238;" d="M344.65,150.3l6.19-0.61c-1.65,0.46-3.04,1.63-3.97,3.06c-0.93,1.43-1.44,3.1-1.7,4.79
						c-1.11,7.13,2.68,14.79,8.77,18.65l-4.98,0.66C348.96,176.85,334.66,164.08,344.65,150.3"/>
				</g>
			</g>
		</g>
		<g>
			<path style="fill:#263238;" d="M337.63,163.42c3.18,0.88,6.76,0.17,9.36-1.86s4.17-5.32,4.09-8.62c-0.07-3.08-1.46-6.22-0.5-9.14
				c0.66-2.01,2.34-3.58,2.91-5.62c0.84-3.04-1-6.12-2.75-8.74c-1.13-1.68-2.28-3.39-3.85-4.67c-1.57-1.28-3.65-2.08-5.63-1.66"/>
			<g>
				<path style="fill:#263238;" d="M309.23,123.37c0.17,2.32-1.36,4.4-2.91,6.14s-3.27,3.56-3.6,5.87
					c-0.59,4.09,3.41,7.88,2.58,11.93c-0.44,2.17-2.22,3.91-2.54,6.1c-0.31,2.12,0.83,4.19,2.24,5.81c1.41,1.61,3.12,2.96,4.37,4.7
					c1.31,1.83,2.03,4.01,2.97,6.06s2.21,4.08,4.19,5.16c2.98,1.62,7.16,0.86,9.44,3.36c2.21,2.42,4.92,2.8,7.64,4.63"/>
				<path style="fill:#263238;" d="M344.96,126.92c0.06-2.11-1.89-3.74-3.85-4.51c-1.96-0.77-4.14-1.06-5.89-2.24
					c-1.55-1.04-2.59-2.67-3.9-4c-3.22-3.26-8.24-4.61-12.66-3.41c-4.42,1.21-8.06,4.92-9.17,9.36c-0.75,3-0.24,6.55,2.13,8.55
					c2.75,2.32,6.82,1.8,10.34,1.08s7.5-1.43,10.44,0.64c1.77,1.25,2.79,3.27,3.87,5.15c1.08,1.88,2.44,3.79,4.49,4.5
					c2.05,0.71,4.83-0.51,4.91-2.68"/>
				<g>
					<g>
						<g>
							<g>
								<g>
									<g>
										<g>
											<g>
												<g>
													<g>
														<g>
															<g>
																<g>
																	<path style="fill:#FFBE9D;" d="M336.65,127.36c1.82,0.2,3.19,1.75,3.15,3.58l0,0l-2.1,47.64
																		c-0.09,5.63-8.31,8.79-14.34,8.65l0,0c-6.08-0.14-6.28-3.13-6.36-8.48c-0.13-8.94-0.12-12.3-0.12-12.25
																		c0,0-7.68-1.29-9.25-11.33c-0.78-4.99-0.51-13.17-0.08-19.85c0.39-6.02,4.39-13.39,10.39-12.74L336.65,127.36z"/>
																</g>
															</g>
														</g>
													</g>
												</g>
											</g>
											<g>
												<g>
													<g>
														<g>
															<g>
																<g>
																	<g>
																		<path style="fill:#263238;" d="M309.45,141.06c-0.03,0.68,0.53,1.26,1.24,1.3c0.71,0.04,1.3-0.48,1.33-1.16
																			c0.03-0.68-0.53-1.26-1.24-1.3C310.07,139.86,309.47,140.38,309.45,141.06z"/>
																	</g>
																</g>
															</g>
														</g>
													</g>
												</g>
												<g>
													<g>
														<g>
															<g>
																<g>
																	<g>
																		<g>
																			<path style="fill:#263238;" d="M309.31,139.58c0.16,0.17,1.13-0.55,2.52-0.54c1.38-0.01,2.4,0.7,2.55,0.53
																				c0.07-0.07-0.09-0.38-0.53-0.7c-0.43-0.32-1.18-0.64-2.04-0.63c-0.86,0-1.59,0.32-2.01,0.64
																				C309.38,139.21,309.23,139.51,309.31,139.58z"/>
																		</g>
																	</g>
																</g>
															</g>
														</g>
													</g>
												</g>
											</g>
											<g>
												<g>
													<g>
														<g>
															<g>
																<g>
																	<g>
																		<path style="fill:#263238;" d="M323.23,141.41c-0.03,0.68,0.53,1.26,1.24,1.3c0.71,0.04,1.3-0.48,1.33-1.16
																			c0.03-0.68-0.53-1.26-1.24-1.3S323.25,140.73,323.23,141.41z"/>
																	</g>
																</g>
															</g>
														</g>
													</g>
												</g>
												<g>
													<g>
														<g>
															<g>
																<g>
																	<g>
																		<g>
																			<path style="fill:#263238;" d="M322.92,139.87c0.16,0.17,1.14-0.55,2.52-0.54c1.38-0.01,2.4,0.7,2.55,0.53
																				c0.07-0.08-0.09-0.38-0.53-0.7c-0.43-0.32-1.18-0.63-2.04-0.63c-0.86,0-1.59,0.32-2.01,0.64
																				C322.98,139.49,322.84,139.8,322.92,139.87z"/>
																		</g>
																	</g>
																</g>
															</g>
														</g>
													</g>
												</g>
											</g>
											<g>
												<g>
													<g>
														<g>
															<g>
																<g>
																	<g>
																		<path style="fill:#263238;" d="M317.87,150.13c0.01-0.08-0.85-0.23-2.25-0.41c-0.35-0.04-0.69-0.11-0.75-0.35
																			c-0.08-0.26,0.07-0.64,0.24-1.05c0.33-0.85,0.68-1.75,1.05-2.69c1.46-3.83,2.52-6.98,2.36-7.03
																			c-0.16-0.06-1.46,3-2.92,6.83c-0.35,0.94-0.69,1.84-1.01,2.71c-0.13,0.4-0.37,0.86-0.19,1.39
																			c0.09,0.26,0.35,0.46,0.58,0.52c0.23,0.07,0.42,0.07,0.6,0.08C316.99,150.2,317.86,150.2,317.87,150.13z"/>
																	</g>
																</g>
															</g>
														</g>
													</g>
												</g>
											</g>
											<g>
												<g>
													<g>
														<g>
															<g>
																<g>
																	<path style="fill:#EB996E;" d="M316.88,166.5c0,0,6.75,0.45,13.44-3.55c0,0-3.27,6.88-13.31,5.92L316.88,166.5z"/>
																</g>
															</g>
														</g>
													</g>
												</g>
											</g>
											<g>
												<g>
													<g>
														<g>
															<g>
																<g>
																	<path style="fill:#EB996E;" d="M318.45,153.46c0.5-0.66,1.37-1.02,2.24-0.92c0.6,0.07,1.21,0.36,1.57,0.85
																		c0.36,0.49,0.44,1.18,0.11,1.65c-0.37,0.52-1.16,0.64-1.81,0.45c-0.66-0.19-1.23-0.63-1.77-1.06
																		c-0.15-0.12-0.3-0.25-0.39-0.41s-0.11-0.38,0-0.52"/>
																</g>
															</g>
														</g>
													</g>
												</g>
											</g>
											<g>
												<g>
													<g>
														<g>
															<g>
																<g>
																	<g>
																		<path style="fill:#263238;" d="M321.94,151.09c-0.22-0.01-0.23,1.49-1.52,2.55c-1.29,1.07-2.89,0.89-2.9,1.1
																			c-0.02,0.09,0.36,0.29,1.03,0.31c0.66,0.02,1.63-0.19,2.42-0.84c0.79-0.65,1.13-1.52,1.18-2.14
																			C322.21,151.46,322.04,151.08,321.94,151.09z"/>
																	</g>
																</g>
															</g>
														</g>
													</g>
												</g>
											</g>
										</g>
									</g>
								</g>
								<g>
									<g>
										<g>
											<g>
												<g>
													<g>
														<path style="fill:#263238;" d="M322.3,137.45c0.14,0.38,1.52,0.2,3.14,0.4c1.63,0.17,2.94,0.65,3.15,0.31
															c0.1-0.16-0.13-0.52-0.66-0.88c-0.52-0.36-1.36-0.71-2.33-0.82c-0.97-0.11-1.87,0.04-2.46,0.28
															C322.54,136.97,322.24,137.27,322.3,137.45z"/>
													</g>
												</g>
											</g>
										</g>
									</g>
								</g>
								<g>
									<g>
										<g>
											<g>
												<g>
													<g>
														<path style="fill:#263238;" d="M309.83,135.58c0.24,0.31,1.2-0.01,2.34-0.02c1.15-0.05,2.12,0.22,2.34-0.11
															c0.1-0.16-0.05-0.47-0.48-0.77c-0.42-0.3-1.12-0.54-1.9-0.52c-0.79,0.02-1.47,0.31-1.87,0.63
															C309.86,135.1,309.72,135.43,309.83,135.58z"/>
													</g>
												</g>
											</g>
										</g>
									</g>
								</g>
							</g>
						</g>
					</g>
				</g>
				<path style="fill:#263238;" d="M343.65,160.35c-2.76,0.56-5.76-0.29-7.82-2.21c-2.06-1.92-3.13-4.85-2.77-7.64
					c0.31-2.46,1.64-4.97,0.79-7.3c-1.13-3.08-5.45-4.03-6.6-7.11c-0.67-1.79-0.07-3.88-0.82-5.63c-0.71-1.65-2.44-2.6-4.13-3.21
					c-1.69-0.61-3.5-1.03-4.91-2.13s-2.3-3.18-1.39-4.72c7.48,0.9,14.86,2.69,21.92,5.33c1.64,0.61,3.36,1.35,4.32,2.8
					c1.02,1.54,0.97,3.53,0.89,5.38c-0.42,9-0.84,18.01-1.26,27.02"/>
				<g>
					<path style="fill:#263238;" d="M349.05,168.69c-0.08,0.01,0.14-0.97-0.52-2.5c-0.32-0.76-0.89-1.61-1.71-2.44
						c-0.82-0.84-1.93-1.6-3.24-2.3c-1.31-0.71-2.81-1.36-4.36-2.24c-1.53-0.88-3.11-2.09-4.15-3.86c-0.52-0.88-0.84-1.93-0.84-3.01
						c0-1.08,0.24-2.13,0.45-3.18c0.21-1.04,0.42-2.12,0.21-3.15c-0.18-1.04-0.9-1.9-1.85-2.44c-0.95-0.56-2.03-0.91-3.05-1.39
						c-1.01-0.47-2.04-1.15-2.59-2.17c-0.56-1-0.71-2.13-0.75-3.17c-0.04-1.05,0.03-2.07,0.02-3.04c-0.01-0.97-0.09-1.92-0.4-2.77
						c-0.3-0.84-0.83-1.56-1.52-2.06c-1.38-1.02-3.01-1.37-4.45-1.74c-1.45-0.36-2.78-0.79-3.78-1.5c-1.02-0.7-1.57-1.67-1.8-2.49
						c-0.24-0.83-0.12-1.53,0.03-1.94c0.17-0.42,0.35-0.58,0.35-0.58c0.03,0.02-0.11,0.21-0.25,0.62c-0.12,0.41-0.19,1.07,0.06,1.85
						c0.25,0.77,0.8,1.67,1.77,2.3c0.97,0.65,2.26,1.05,3.71,1.38c1.44,0.35,3.12,0.68,4.62,1.75c0.75,0.53,1.36,1.32,1.69,2.24
						c0.34,0.92,0.43,1.92,0.45,2.92c0.02,1-0.04,2.01,0,3.03c0.04,1.01,0.2,2.05,0.7,2.93c0.49,0.9,1.39,1.5,2.37,1.96
						c0.99,0.47,2.08,0.81,3.1,1.41c0.51,0.3,0.99,0.68,1.36,1.16c0.38,0.48,0.61,1.05,0.73,1.62c0.23,1.17-0.01,2.3-0.22,3.35
						c-0.22,1.06-0.46,2.08-0.45,3.08c0,0.99,0.28,1.95,0.76,2.78c0.96,1.67,2.47,2.85,3.95,3.73c1.5,0.88,3,1.55,4.32,2.29
						c1.32,0.72,2.45,1.53,3.27,2.42c0.83,0.88,1.39,1.78,1.69,2.57c0.31,0.79,0.39,1.46,0.39,1.9c0.01,0.22-0.02,0.39-0.03,0.5
						C349.07,168.63,349.06,168.69,349.05,168.69z"/>
				</g>
				<g>
					<path style="fill:#263238;" d="M319.82,175.57c0,0.02-0.17,0.07-0.49,0.15c-0.16,0.05-0.37,0.08-0.62,0.11
						c-0.25,0.04-0.53,0.06-0.85,0.06c-1.28,0.03-3.22-0.31-5.16-1.62c-0.95-0.66-1.91-1.55-2.6-2.75
						c-0.72-1.19-1.07-2.64-1.34-4.12c-0.28-1.48-0.51-3.06-1.3-4.43c-0.78-1.38-2.24-2.31-3.54-3.49
						c-1.36-1.16-2.23-2.84-2.46-4.52c-0.24-1.68,0.13-3.38,0.93-4.71c0.77-1.33,1.68-2.43,2.1-3.68c0.44-1.23,0.51-2.48,0.43-3.59
						c-0.2-2.24-0.85-3.99-1.27-5.19c-0.43-1.2-0.69-1.85-0.65-1.87c0.02-0.01,0.1,0.15,0.25,0.45c0.14,0.3,0.35,0.75,0.59,1.35
						c0.47,1.18,1.19,2.92,1.45,5.23c0.11,1.15,0.06,2.46-0.38,3.77c-0.43,1.33-1.36,2.49-2.09,3.77c-0.74,1.27-1.07,2.83-0.84,4.4
						c0.23,1.57,1.01,3.1,2.3,4.21c1.25,1.14,2.77,2.1,3.63,3.62c0.85,1.5,1.06,3.13,1.33,4.6c0.25,1.48,0.57,2.86,1.24,3.99
						c0.64,1.14,1.54,2.01,2.44,2.67c1.83,1.3,3.7,1.69,4.95,1.72C319.12,175.71,319.81,175.51,319.82,175.57z"/>
				</g>
			</g>
			<g>
				<path style="fill:#455A64;" d="M348.95,127.77c0,0,0.12,0.12,0.17,0.41c0.06,0.29-0.02,0.77-0.39,1.21
					c-0.35,0.43-0.97,0.86-1.79,0.91c-0.82,0.02-1.68-0.34-2.54-0.76c-0.86-0.43-1.81-0.82-2.93-0.86c-1.1-0.07-2.29,0.1-3.54,0.32
					c-1.25,0.22-2.58,0.5-4,0.52c-1.41,0.02-3-0.4-4.11-1.5c-1.13-1.07-1.77-2.42-2.36-3.67c-0.59-1.25-1.15-2.46-1.91-3.44
					c-1.48-2.02-4.01-2.58-5.79-2.11c-1.83,0.46-2.94,1.71-3.49,2.58c-0.56,0.9-0.69,1.5-0.74,1.49c-0.02,0,0-0.15,0.08-0.43
					c0.08-0.28,0.22-0.68,0.48-1.16c0.52-0.93,1.62-2.29,3.57-2.84c0.96-0.26,2.1-0.28,3.22,0.06c1.13,0.32,2.23,1.07,3.04,2.11
					c0.82,1.03,1.4,2.27,2,3.52c0.6,1.24,1.23,2.54,2.26,3.51c1.01,0.99,2.42,1.37,3.75,1.37c1.35,0,2.66-0.27,3.92-0.48
					c1.26-0.21,2.49-0.37,3.65-0.28c1.17,0.06,2.22,0.51,3.06,0.96c0.85,0.44,1.65,0.79,2.37,0.8c0.72-0.01,1.31-0.38,1.65-0.75
					c0.35-0.38,0.46-0.79,0.44-1.06C349,127.91,348.92,127.78,348.95,127.77z"/>
			</g>
			<g>
				<path style="fill:#263238;" d="M343.33,124.88c-3.27-0.76-5.79-4-5.7-7.36c0.08-3.36,2.75-6.47,6.06-7.07
					c1.6-0.29,3.44,0.07,4.4,1.38c0.92,1.25,0.86,3.12,2.03,4.14c1.25,1.09,3.18,0.62,4.8,0.97c2.52,0.54,4.2,3.3,3.91,5.86
					c-0.29,2.56-2.25,4.74-4.63,5.72c-2.38,0.98-5.1,0.87-7.58,0.15c-2.47-0.72-4.74-2.01-6.92-3.36"/>
				<g>
					<path style="fill:#455A64;" d="M355.38,117.63c0.05,0.02-0.12,0.77-0.74,1.84c-0.61,1.07-1.75,2.4-3.36,3.41
						c-1.61,1-3.31,1.44-4.54,1.52c-1.23,0.09-1.98-0.1-1.98-0.15c0.01-0.09,0.76-0.04,1.93-0.22c1.17-0.17,2.77-0.64,4.31-1.59
						c1.53-0.96,2.66-2.19,3.33-3.17C355.01,118.3,355.3,117.6,355.38,117.63z"/>
				</g>
			</g>
			<g>
				<path style="fill:#E8505B;" d="M350.08,128.72c-0.13,0.11-1.66-2.45-4.75-4.19c-3.06-1.79-6.04-1.82-6.01-1.99
					c0-0.06,0.73-0.14,1.91,0.02c1.17,0.16,2.78,0.61,4.36,1.52c1.58,0.91,2.78,2.07,3.51,3
					C349.83,128.02,350.13,128.69,350.08,128.72z"/>
			</g>
		</g>
		<g>
			<path style="fill:#FFBE9D;" d="M277.21,237.63l-16.17-3.15l2.92,4.15l-6.95,3.46l-5.8-2.71c0,0,0.42,1.27,1.69,3.39
				c1.27,2.12,2.96,3.81,4.06,3.9c1.65,0.13,1.94,0.15,0,0c0,0,0.35,1.97,2.15,3.88c1.07,1.14,3.88,2.94,7.31,2.02l10.89-3.93
				L277.21,237.63z"/>
			<g>
				<path style="fill:#EB996E;" d="M260.86,245.76c0.1,0.09-0.8,0.93-2.23,1.09c-1.44,0.17-2.5-0.44-2.42-0.55
					c0.06-0.14,1.09,0.2,2.37,0.04C259.85,246.2,260.78,245.63,260.86,245.76z"/>
			</g>
			<g>
				<path style="fill:#EB996E;" d="M262.98,249.21c0.1,0.09-0.59,0.88-1.8,1.19c-1.2,0.32-2.19-0.03-2.15-0.16
					c0.03-0.15,0.95-0.06,2.02-0.35C262.12,249.63,262.88,249.1,262.98,249.21z"/>
			</g>
			<g>
				<path style="fill:#EB996E;" d="M267.07,236.96c0.03,0.08-0.55,0.31-1.41,0.82c-0.87,0.5-1.99,1.32-3.27,2.19
					c-1.28,0.88-2.58,1.53-3.58,1.79c-1.01,0.27-1.66,0.21-1.66,0.15c-0.01-0.08,0.62-0.15,1.55-0.5c0.94-0.34,2.14-1.01,3.41-1.87
					c1.27-0.87,2.45-1.66,3.39-2.09C266.42,237.02,267.06,236.9,267.07,236.96z"/>
			</g>
		</g>
		<g>
			<path style="fill:#263238;" d="M365.4,264.54c0,0,0.55,0.35,1.93,2.8c4.23,7.55,5.94,25.64-10.01,41.79
				c-20.63,20.87-44.77,55-44.77,55l-18.96,80.16l-28.64-6.2l14.76-83.32l40.48-75.07L365.4,264.54z"/>
			<polygon style="fill:#263238;" points="396.99,419.68 352.87,352.16 339.49,293.88 305.41,310.63 322.5,369.78 377.03,437.71 			
				"/>
			<g>
				<path style="fill:#455A64;" d="M293.58,444.29c-0.01,0,0.01-0.14,0.07-0.4c0.06-0.28,0.14-0.66,0.25-1.15
					c0.23-1.04,0.57-2.51,0.99-4.41c0.89-3.85,2.17-9.37,3.74-16.18c3.21-13.68,7.65-32.53,12.54-53.35
					c0.38-1.62,0.77-3.23,1.12-4.74l0.01-0.06l0.04-0.04c12.51-15.99,23.89-30.14,32.28-40.2c4.2-5.02,7.63-9.03,10.06-11.74
					c1.2-1.37,2.17-2.39,2.82-3.09c0.31-0.33,0.56-0.59,0.75-0.79c0.17-0.18,0.26-0.26,0.27-0.26c0.01,0.01-0.07,0.1-0.23,0.29
					c-0.18,0.2-0.41,0.48-0.71,0.82c-0.62,0.73-1.57,1.77-2.75,3.16c-2.38,2.75-5.77,6.79-9.93,11.84
					c-8.31,10.11-19.64,24.29-32.14,40.29l0.05-0.1c-0.36,1.5-0.74,3.11-1.12,4.74c-4.95,20.81-9.44,39.64-12.69,53.31
					c-1.64,6.8-2.98,12.31-3.9,16.15c-0.47,1.88-0.83,3.35-1.09,4.38c-0.13,0.48-0.22,0.86-0.3,1.14
					C293.63,444.16,293.59,444.29,293.58,444.29z"/>
			</g>
			<g>
				<path style="fill:#455A64;" d="M345.32,285.85c0.01,0.03-0.23,0.17-0.69,0.38c-0.46,0.21-1.16,0.46-2.05,0.66
					c-1.76,0.42-4.37,0.58-7.08-0.2c-2.71-0.79-4.82-2.33-6.08-3.63c-0.64-0.65-1.09-1.24-1.37-1.66c-0.28-0.42-0.41-0.67-0.38-0.69
					c0.07-0.05,0.7,0.88,2.01,2.09c1.3,1.21,3.37,2.64,5.97,3.39c2.6,0.76,5.12,0.66,6.86,0.34
					C344.26,286.22,345.29,285.77,345.32,285.85z"/>
			</g>
		</g>
		<g>
			<path style="fill:#C14953;" d="M369.65,267.95c-17.25,9.09-45.27,14.52-54.22,10.83l-0.31-33.25c0,0-12.27-20.24-12.32-27.89
				c-0.07-11.03,13.66-36.17,13.66-36.17l20.61-5.46c4.85-0.02,8.77,1.09,11.93,2.77c7.94,4.22,12.26,13.08,11.37,22.02l-5.19,33.07
				L369.65,267.95z"/>
			<g style="opacity:0.3;">
				<path d="M347.53,178.75c1.2-0.18,1.64,1.78,0.78,2.63c-0.86,0.85-2.19,0.9-3.39,1.09c-5.37,0.84-9.51,5.44-11.47,10.5
					c-1.96,5.07-2.14,10.61-2.46,16.04c-0.32,5.42-0.85,11-3.4,15.8c-4.74-8.41-5.48-18.96-1.96-27.94
					c3.52-8.99,11.24-16.22,20.43-19.17"/>
			</g>
			<path style="fill:#263238;" d="M348.99,178.78c0,0-2.96-4.89-12.91-2.77c-6.65,1.42-21.17,15.36-17.12,37.78
				c4.05,22.42,14.91,30.35,14.91,30.35s-9.99-34.31-4.44-49.28C334.97,179.88,348.99,178.78,348.99,178.78z"/>
			<g style="opacity:0.3;">
				<path d="M315.49,252.64c4.11,1.32,8.05,2.97,12.33,3.54c4.28,0.57,8.75,0.35,12.72-1.33c5.49-2.33,9.57-7.34,11.67-12.93
					c2.1-5.59,2.39-11.71,1.83-17.66c-3.76,4.64-3.3,11.51-6.49,16.55c-2,3.16-5.25,5.3-8.59,6.98
					C331.69,251.44,323.62,252.82,315.49,252.64"/>
			</g>
			<path style="fill:#263238;" d="M327.85,218.68c0,0-1.34,25.24,29.45,20.22l3.1,7.3c0,0-32.37,6.84-36.96-19.97L327.85,218.68z"/>
			<g>
				<path style="fill:#C14953;" d="M355.91,187.3c2.69,3.84,3.39,8.73,2.28,13.28l-7.67,34.33c-3.29,9.66-12.68,15.52-18.52,16.31
					l-54.7,5.76v-20.38l50.77-7.54l2.38-27.8c0.21-3.74,2.05-10.46,4.43-13.35c2.66-3.24,6.75-7.64,13.43-6.52
					C352.41,182.06,354.15,184.79,355.91,187.3z"/>
				<g>
					<path style="fill:#263238;" d="M357.49,201.91c0.02,0,0,0.27-0.06,0.77c-0.05,0.51-0.15,1.25-0.27,2.21
						c-0.26,1.91-0.67,4.68-1.27,8.08c-0.6,3.4-1.4,7.44-2.42,11.89c-0.52,2.23-1.06,4.56-1.73,6.96c-0.67,2.4-1.48,4.87-2.68,7.25
						c-1.19,2.38-2.75,4.52-4.62,6.21c-1.86,1.7-3.93,3-6.02,3.97c-4.18,1.96-8.32,2.68-11.75,3.05c-3.45,0.35-6.25,0.37-8.18,0.39
						c-0.93,0-1.67-0.01-2.22-0.01c-0.51-0.01-0.78-0.02-0.78-0.04c0-0.02,0.27-0.04,0.77-0.06c0.56-0.02,1.3-0.05,2.22-0.09
						c1.93-0.08,4.72-0.16,8.14-0.56c3.4-0.42,7.49-1.17,11.59-3.12c2.04-0.96,4.07-2.25,5.88-3.91c1.82-1.65,3.34-3.73,4.5-6.06
						c1.17-2.33,1.98-4.77,2.65-7.15c0.67-2.38,1.22-4.71,1.75-6.93c1.05-4.44,1.88-8.46,2.52-11.85c0.65-3.39,1.11-6.14,1.43-8.05
						c0.15-0.91,0.28-1.64,0.37-2.19C357.42,202.17,357.48,201.91,357.49,201.91z"/>
				</g>
				<g>
					
						<ellipse transform="matrix(0.3076 0.9515 -0.9515 0.3076 448.1136 -152.0995)" style="fill:#263238;" cx="328.57" cy="231.86" rx="3.2" ry="0.26"/>
				</g>
				<g>
					<path style="fill:#263238;" d="M332.66,234.12c-0.08,0.11-1.44-0.74-2.79-2.17c-1.36-1.42-2.14-2.83-2.02-2.9
						c0.12-0.08,1.08,1.16,2.4,2.54C331.56,232.99,332.75,234,332.66,234.12z"/>
				</g>
				<g>
					<path style="fill:#263238;" d="M282.07,235.89c0-0.01,0.08-0.03,0.23-0.06c0.18-0.03,0.4-0.07,0.68-0.13
						c0.64-0.11,1.51-0.25,2.62-0.44c2.33-0.36,5.63-0.88,9.73-1.52c8.29-1.25,19.78-2.99,32.71-4.94l-0.22,0.23
						c0.18-1.9,0.37-3.9,0.57-5.93c0.66-7.22,1.35-14.08,1.69-20.35c0.25-3.15,0.85-6.11,1.7-8.78c0.86-2.67,1.98-5.1,3.58-6.92
						c3.24-3.53,6.87-5.4,9.54-5.74c1.33-0.2,2.38-0.06,3.07,0.05c0.34,0.08,0.6,0.15,0.77,0.2c0.17,0.05,0.26,0.08,0.26,0.09
						c0,0.1-1.44-0.55-4.07-0.14c-2.6,0.39-6.14,2.28-9.29,5.78c-1.53,1.77-2.62,4.17-3.44,6.81c-0.82,2.65-1.4,5.58-1.63,8.69
						c-0.31,6.27-0.99,13.15-1.65,20.37c-0.2,2.03-0.39,4.04-0.57,5.93l-0.02,0.2l-0.2,0.03c-12.95,1.89-24.44,3.57-32.74,4.78
						c-4.1,0.58-7.42,1.04-9.75,1.37c-1.12,0.15-2,0.26-2.64,0.35c-0.28,0.03-0.5,0.06-0.69,0.08
						C282.15,235.89,282.07,235.89,282.07,235.89z"/>
				</g>
			</g>
			<g>
				
					<ellipse transform="matrix(0.0995 0.995 -0.995 0.0995 522.222 -92.7183)" style="fill:#FAFAFA;" cx="312.34" cy="242.17" rx="10.41" ry="0.26"/>
			</g>
			<g>
				<path style="fill:#FAFAFA;" d="M353.41,221.53c0,0.07-1.33,0.09-3.48,0.05c-2.15-0.03-5.11-0.12-8.39-0.24
					c-3.28-0.12-6.24-0.26-8.38-0.39c-2.14-0.13-3.47-0.24-3.46-0.31c0-0.07,1.33-0.09,3.48-0.05c2.15,0.03,5.11,0.12,8.38,0.24
					c3.27,0.12,6.23,0.26,8.38,0.39S353.41,221.45,353.41,221.53z"/>
			</g>
			<g>
				<path style="fill:#FAFAFA;" d="M318.69,215.03c0,0.07-0.86,0.2-2.27,0.3c-1.41,0.1-3.35,0.17-5.51,0.13
					c-2.15-0.04-4.1-0.19-5.5-0.35s-2.26-0.32-2.25-0.39c0.01-0.07,0.88-0.04,2.28,0.02c1.4,0.06,3.34,0.15,5.48,0.19
					c2.14,0.04,4.08,0.03,5.48,0.02C317.81,214.95,318.69,214.95,318.69,215.03z"/>
			</g>
			<g>
				<path style="fill:#FAFAFA;" d="M323.21,191.28c-0.08,0.13-2.18-0.97-4.9-2c-2.72-1.04-5.03-1.61-4.99-1.76
					c0.02-0.13,2.41,0.22,5.18,1.27C321.26,189.84,323.28,191.17,323.21,191.28z"/>
			</g>
			<g>
				<path style="fill:#FAFAFA;" d="M362.93,253.67c0.01,0.02-0.15,0.09-0.45,0.22c-0.36,0.15-0.79,0.33-1.32,0.54
					c-1.15,0.47-2.83,1.09-4.92,1.82c-4.18,1.46-10.04,3.26-16.63,4.77c-6.59,1.51-12.65,2.44-17.05,2.94
					c-2.2,0.25-3.98,0.42-5.22,0.5c-0.57,0.03-1.04,0.06-1.42,0.08c-0.33,0.01-0.5,0.01-0.5-0.01c0-0.02,0.17-0.05,0.49-0.1
					c0.38-0.05,0.85-0.11,1.41-0.18c1.23-0.14,3-0.36,5.19-0.66c4.38-0.59,10.41-1.58,16.98-3.08c6.57-1.51,12.42-3.24,16.63-4.61
					c2.1-0.68,3.8-1.26,4.96-1.66c0.54-0.18,0.99-0.33,1.35-0.45C362.76,253.7,362.92,253.66,362.93,253.67z"/>
			</g>
			<g>
				
					<ellipse transform="matrix(0.9995 0.0323 -0.0323 0.9995 6.4261 -11.0866)" style="fill:#FAFAFA;" cx="346.51" cy="193.44" rx="13.17" ry="0.26"/>
			</g>
			<g>
				
					<ellipse transform="matrix(0.0384 0.9993 -0.9993 0.0384 523.0676 -52.5186)" style="fill:#FAFAFA;" cx="288.82" cy="245.5" rx="9.99" ry="0.26"/>
			</g>
		</g>
	</g>
</g>
<g id="Character_1">
	<g>
		<g>
			<g>
				<g>
					<path style="fill:#455A64;" d="M177.33,153.22c8.84-1.67,18.15-0.7,26.46,2.76c3.72,1.55,7.39,3.74,9.4,7.22
						c2.37,4.12,1.98,9.21,1.73,13.96c-0.52,9.67-0.18,19.38,1.01,28.99c0.99,8,2.57,15.96,2.55,24.02
						c-0.03,8.06-1.83,16.42-6.88,22.69c-7.79,9.68-21.67,12.39-33.98,10.75c-6.48-0.87-12.95-2.81-18.24-6.66
						c-5.28-3.85-9.26-9.81-9.71-16.33"/>
				</g>
			</g>
			<g>
				<g>
					<path style="fill:#263238;" d="M192.75,165.48c-0.09,0.08,1.51,1.46,2.92,4.47c0.71,1.49,1.36,3.35,1.98,5.47
						c0.64,2.1,1.26,4.47,2.31,6.83c1.05,2.36,2.52,4.44,4.31,5.84c1.77,1.43,3.87,2.03,5.58,1.99c1.72-0.02,3.07-0.57,3.84-1.11
						c0.4-0.26,0.67-0.52,0.83-0.7c0.17-0.19,0.25-0.29,0.23-0.31c-0.04-0.05-0.4,0.34-1.2,0.79c-0.78,0.46-2.07,0.91-3.7,0.87
						c-1.62-0.02-3.54-0.62-5.2-2c-1.67-1.35-3.07-3.35-4.09-5.64c-1.02-2.3-1.66-4.63-2.33-6.74c-0.65-2.11-1.36-4-2.14-5.49
						c-0.77-1.5-1.6-2.61-2.25-3.29C193.2,165.76,192.77,165.45,192.75,165.48z"/>
				</g>
			</g>
			<g>
				<g>
					<path style="fill:#263238;" d="M196.28,262.99c0.02,0,0.07-0.27,0.15-0.79c0.08-0.59,0.18-1.34,0.3-2.27
						c0.25-1.98,0.58-4.84,0.95-8.38c0.75-7.09,1.66-16.89,2.43-27.73c0.77-10.85,1.26-20.68,1.51-27.8
						c0.13-3.56,0.21-6.44,0.24-8.43c0.01-0.94,0.02-1.7,0.02-2.29c0-0.52-0.01-0.8-0.04-0.8c-0.02,0-0.06,0.27-0.1,0.8
						c-0.04,0.59-0.09,1.35-0.15,2.29c-0.11,2.07-0.26,4.93-0.45,8.42c-0.38,7.11-0.94,16.93-1.7,27.78
						c-0.77,10.84-1.6,20.64-2.24,27.73c-0.31,3.48-0.56,6.33-0.74,8.4c-0.07,0.94-0.13,1.7-0.18,2.29
						C196.26,262.72,196.26,262.99,196.28,262.99z"/>
				</g>
			</g>
			<g>
				<g>
					<path style="fill:#263238;" d="M200.23,219.57c-0.02,0.17,3.86,0.71,8.69,0.83c4.83,0.13,8.73-0.21,8.72-0.38
						c-0.01-0.19-3.91-0.15-8.71-0.28C204.14,219.62,200.25,219.38,200.23,219.57z"/>
				</g>
			</g>
			<g>
				<g>
					<path style="fill:#263238;" d="M203.37,219.95c-0.08-0.03-0.43,0.62-0.81,1.76c-0.19,0.57-0.37,1.25-0.52,2.04
						c-0.07,0.4-0.13,0.86,0.02,1.36c0.14,0.51,0.58,0.97,1.18,1.08c0.3,0.05,0.66-0.04,0.89-0.26c0.24-0.21,0.35-0.49,0.41-0.73
						c0.11-0.5,0.05-0.93,0.02-1.32c-0.08-0.8-0.23-1.5-0.4-2.08c-0.33-1.16-0.71-1.81-0.79-1.78c-0.09,0.04,0.12,0.74,0.33,1.88
						c0.1,0.57,0.2,1.26,0.24,2.02c0.02,0.39,0.05,0.78-0.04,1.12c-0.08,0.34-0.29,0.53-0.57,0.48c-0.68-0.12-0.83-0.96-0.7-1.69
						c0.11-0.76,0.25-1.44,0.37-2.01C203.27,220.69,203.46,219.98,203.37,219.95z"/>
				</g>
			</g>
		</g>
		<g>
			<g>
				<path style="fill:#263238;" d="M168.2,155.64l41.84,1.38c5.3,0.17,9.73-3.98,9.9-9.27l0.27-8.13c0.17-5.3-3.98-9.73-9.27-9.9
					l-41.84-1.38c-5.3-0.17-9.73,3.98-9.9,9.27l-0.27,8.13C158.75,151.03,162.9,155.47,168.2,155.64z"/>
			</g>
			<g>
				<g>
					<path style="fill:#455A64;" d="M209.94,130.24c0.01-0.02-0.11-0.1-0.36-0.23c-0.25-0.12-0.64-0.26-1.17-0.36
						c-1.04-0.19-2.69-0.1-4.38,0.82c-1.65,0.89-3.61,2.22-4.95,4.4c-1.38,2.13-2.14,4.89-2.35,7.76c-0.27,2.9,0.37,5.73,1.6,7.94
						c1.23,2.23,3.04,3.78,4.74,4.63c1.71,0.87,3.26,1.13,4.32,1.14c0.53,0.02,0.94-0.02,1.21-0.06c0.27-0.04,0.42-0.08,0.41-0.1
						c-0.01-0.06-0.58,0-1.61-0.1c-1.02-0.09-2.51-0.42-4.12-1.3c-1.61-0.87-3.29-2.37-4.42-4.5c-1.15-2.12-1.74-4.81-1.48-7.6
						c0.2-2.8,0.92-5.44,2.2-7.49c1.23-2.08,3.08-3.4,4.65-4.32c1.58-0.93,3.12-1.08,4.13-0.97
						C209.4,130.02,209.92,130.3,209.94,130.24z"/>
				</g>
			</g>
			<g>
				<path style="fill:#455A64;" d="M186.39,128.8l6.36,0.32c-1.74,0.21-3.33,1.19-4.49,2.49c-1.16,1.31-1.93,2.92-2.46,4.59
					c-2.21,7.04,0.46,15.38,6.04,20.21l-5.15-0.09C186.7,156.34,174.17,141.22,186.39,128.8"/>
			</g>
		</g>
	</g>
	<g>
		<g>
			<path style="fill:#263238;" d="M155.31,116.82c-2.6-6.28-2.73-17.21,1.24-22.96c3.97-5.75,11.41-9.54,18.24-11.01
				c1.14-0.25,2.37-0.41,3.45,0.04s1.88,1.74,1.42,2.81c1.37-0.86,2.78-1.73,4.35-2.09c1.58-0.36,3.39-0.13,4.54,1
				c1.16,1.13,1.34,3.26,0.11,4.31c1.91-0.69,4.2-0.15,5.59,1.32s1.81,3.79,1.01,5.66c-0.76,1.79-2.38,3.78-3.82,5.09
				c-1.43,1.31-1.67,2.67-1.43,4.6"/>
		</g>
		<g>
			<g>
				<g>
					<g>
						<g>
							<g>
								<g>
									<g>
										<g>
											<g>
												<g>
													<g>
														<g>
															<g>
																<g>
																	<g>
																		<path style="fill:#FFBE9D;" d="M156.94,105.29l-1.81,38.48c-0.31,6.54,4.92,12.01,11.47,12l0,0
																			c6.11-0.01,11.14-4.83,11.42-10.94c0.13-2.9,0.25-5.31,0.28-5.61c0,0,9.84-0.46,11-10.12
																			c0.56-4.67,0.94-14.38,1.17-23.17c0.25-9.44-6.79-17.49-16.18-18.5l-0.93-0.1
																			C163.24,86.83,157.16,95.16,156.94,105.29z"/>
																	</g>
																</g>
															</g>
														</g>
													</g>
												</g>
											</g>
										</g>
									</g>
									<g>
										<g>
											<g>
												<g>
													<g>
														<g>
															<g>
																<g>
																	<g>
																		<path style="fill:#EB996E;" d="M178.34,139.08c0,0-6.17-0.16-12.23-4.94c0,0,1.93,6.05,11.68,6.22L178.34,139.08z
																			"/>
																	</g>
																</g>
															</g>
														</g>
													</g>
												</g>
											</g>
										</g>
									</g>
								</g>
							</g>
						</g>
						<g>
							<g>
								<g>
									<g>
										<g>
											<g>
												<g>
													<g>
														<g>
															<g>
																<g>
																	<g>
																		<g>
																			<g>
																				<g>
																					<path style="fill:#263238;" d="M186.97,112.1c-0.05,0.73-0.72,1.29-1.48,1.25c-0.76-0.04-1.34-0.67-1.29-1.4
																						c0.05-0.73,0.72-1.29,1.48-1.25C186.44,110.74,187.02,111.37,186.97,112.1z"/>
																				</g>
																			</g>
																		</g>
																	</g>
																</g>
															</g>
														</g>
													</g>
												</g>
												<g>
													<g>
														<g>
															<g>
																<g>
																	<g>
																		<g>
																			<g>
																				<g>
																					<g>
																						<path style="fill:#263238;" d="M187.89,110.45c-0.19,0.16-1.15-0.73-2.64-0.88c-1.48-0.18-2.66,0.47-2.8,0.27
																							c-0.07-0.09,0.14-0.4,0.65-0.69c0.5-0.29,1.34-0.54,2.26-0.44c0.93,0.1,1.67,0.53,2.08,0.93
																							C187.87,110.04,187.99,110.38,187.89,110.45z"/>
																					</g>
																				</g>
																			</g>
																		</g>
																	</g>
																</g>
															</g>
														</g>
													</g>
												</g>
											</g>
											<g>
												<g>
													<g>
														<g>
															<g>
																<g>
																	<g>
																		<g>
																			<g>
																				<g>
																					<path style="fill:#263238;" d="M172.33,111.04c-0.05,0.73-0.72,1.29-1.48,1.25c-0.76-0.04-1.34-0.67-1.29-1.4
																						c0.05-0.73,0.72-1.29,1.48-1.25C171.81,109.68,172.39,110.3,172.33,111.04z"/>
																				</g>
																			</g>
																		</g>
																	</g>
																</g>
															</g>
														</g>
													</g>
												</g>
												<g>
													<g>
														<g>
															<g>
																<g>
																	<g>
																		<g>
																			<g>
																				<g>
																					<g>
																						<path style="fill:#263238;" d="M173.25,109.15c-0.19,0.16-1.16-0.73-2.64-0.88c-1.48-0.18-2.66,0.47-2.8,0.27
																							c-0.07-0.09,0.14-0.4,0.65-0.69c0.5-0.29,1.34-0.54,2.26-0.44c0.93,0.11,1.67,0.53,2.08,0.93
																							C173.22,108.74,173.34,109.08,173.25,109.15z"/>
																					</g>
																				</g>
																			</g>
																		</g>
																	</g>
																</g>
															</g>
														</g>
													</g>
												</g>
											</g>
											<g>
												<g>
													<g>
														<g>
															<g>
																<g>
																	<g>
																		<g>
																			<g>
																				<g>
																					<path style="fill:#263238;" d="M177.46,120.76c0-0.09,0.94-0.15,2.46-0.18c0.38,0,0.75-0.04,0.84-0.29
																						c0.12-0.26,0-0.69-0.13-1.15c-0.26-0.96-0.53-1.96-0.81-3.01c-1.12-4.28-1.88-7.79-1.71-7.83
																						c0.17-0.04,1.22,3.39,2.33,7.68c0.27,1.06,0.52,2.06,0.76,3.02c0.1,0.45,0.29,0.96,0.04,1.51
																						c-0.13,0.27-0.43,0.45-0.68,0.49c-0.25,0.05-0.47,0.03-0.65,0.02C178.39,120.94,177.45,120.85,177.46,120.76z"
																						/>
																				</g>
																			</g>
																		</g>
																	</g>
																</g>
															</g>
														</g>
													</g>
												</g>
											</g>
											<g>
												<g>
													<g>
														<g>
															<g>
																<g>
																	<g>
																		<g>
																			<g>
																				<g>
																					<path style="fill:#263238;" d="M172.97,121.32c0.24,0.01,0.07,1.63,1.33,2.92c1.25,1.3,2.99,1.3,2.98,1.53
																						c0.01,0.1-0.42,0.27-1.15,0.21c-0.71-0.05-1.73-0.39-2.5-1.19c-0.77-0.79-1.03-1.77-1.01-2.44
																						C172.64,121.68,172.86,121.3,172.97,121.32z"/>
																				</g>
																			</g>
																		</g>
																	</g>
																</g>
															</g>
														</g>
													</g>
												</g>
											</g>
										</g>
									</g>
								</g>
								<g>
									<g>
										<g>
											<g>
												<g>
													<g>
														<g>
															<g>
																<g>
																	<path style="fill:#263238;" d="M174.26,103.37c-0.19,0.39-1.65,0.04-3.42,0.06c-1.77-0.01-3.23,0.35-3.42-0.04
																		c-0.08-0.18,0.2-0.54,0.81-0.87c0.61-0.33,1.54-0.6,2.6-0.61c1.06,0,2,0.27,2.61,0.6
																		C174.06,102.83,174.35,103.18,174.26,103.37z"/>
																</g>
															</g>
														</g>
													</g>
												</g>
											</g>
										</g>
									</g>
								</g>
								<g>
									<g>
										<g>
											<g>
												<g>
													<g>
														<g>
															<g>
																<g>
																	<path style="fill:#263238;" d="M187.81,106.09c-0.3,0.31-1.28-0.15-2.51-0.3c-1.22-0.19-2.3-0.02-2.5-0.4
																		c-0.09-0.18,0.11-0.5,0.6-0.77c0.48-0.27,1.26-0.45,2.11-0.33c0.84,0.12,1.54,0.5,1.93,0.9
																		C187.84,105.58,187.94,105.94,187.81,106.09z"/>
																</g>
															</g>
														</g>
													</g>
												</g>
											</g>
										</g>
									</g>
								</g>
							</g>
						</g>
					</g>
				</g>
			</g>
			<g>
				<g>
					<g>
						<g>
							<g>
								<g>
									<g>
										<g>
											<g>
												<g>
													<path style="fill:#FFBE9D;" d="M156.96,112.54c-0.16-0.09-6.43-2.68-6.94,3.95c-0.5,6.64,6.26,5.77,6.29,5.58
														S156.96,112.54,156.96,112.54z"/>
												</g>
											</g>
										</g>
									</g>
								</g>
							</g>
						</g>
					</g>
				</g>
				<g>
					<g>
						<g>
							<g>
								<g>
									<g>
										<g>
											<g>
												<g>
													<g>
														<path style="fill:#EB996E;" d="M154.48,119.41c-0.03-0.02-0.12,0.07-0.32,0.15c-0.2,0.07-0.53,0.11-0.87-0.05
															c-0.68-0.31-1.19-1.47-1.13-2.67c0.03-0.61,0.2-1.17,0.45-1.63c0.24-0.47,0.58-0.79,0.94-0.82
															c0.36-0.05,0.59,0.18,0.66,0.37c0.07,0.19,0.02,0.32,0.06,0.34c0.02,0.02,0.15-0.1,0.12-0.38
															c-0.02-0.13-0.08-0.3-0.23-0.44c-0.15-0.14-0.38-0.23-0.63-0.22c-0.51,0-1.01,0.43-1.29,0.94
															c-0.3,0.51-0.51,1.14-0.54,1.82c-0.06,1.34,0.53,2.64,1.47,2.99c0.46,0.16,0.86,0.05,1.07-0.1
															C154.45,119.57,154.5,119.42,154.48,119.41z"/>
													</g>
												</g>
											</g>
										</g>
									</g>
								</g>
							</g>
						</g>
					</g>
				</g>
			</g>
			<g>
				<g>
					<path style="fill:#263238;" d="M195.67,93.73c0.12,8.66-10.75,11.44-15.04,6.28c-1.98-2.39-3.64-5.31-6.5-6.54
						c-1.92-0.83-4.17-0.63-6.1,0.17c-0.02,0.01-0.04,0.02-0.06,0.02c-2.84,1.21-4.7,4.25-5.36,7.27
						c-0.92,4.21-0.52,8.01-1.92,11.83c-0.2,0.55-0.44,1.14-0.93,1.44c-0.85,0.52-1.97-0.08-2.57-0.87
						c-0.97-1.26-1.22-2.92-1.33-4.51c-0.25-3.61,0.05-7.29,1.22-10.72c1.17-3.43,3.23-6.59,6.1-8.8c3.59-2.76,8.32-3.88,12.81-3.32
						c4.49,0.55,8.72,2.72,12.02,5.82c1.53,1.44,2.9,3.12,3.56,5.12"/>
				</g>
			</g>
		</g>
		<g>
			<g>
				<path style="fill:#455A64;" d="M189.01,88.46c0-0.02,0.34-0.05,0.92,0.11c0.57,0.16,1.38,0.58,2.1,1.39
					c0.71,0.8,1.33,2.02,1.39,3.47c0.06,1.45-0.54,3.02-1.6,4.28c-1.07,1.26-2.46,2.1-3.81,2.53c-1.35,0.44-2.63,0.54-3.68,0.53
					c-1.06-0.02-1.9-0.15-2.48-0.27c-0.58-0.12-0.89-0.22-0.88-0.25c0.01-0.09,1.29,0.19,3.36,0.16c1.03-0.03,2.26-0.17,3.53-0.61
					c1.27-0.43,2.56-1.23,3.57-2.41c0.99-1.17,1.56-2.61,1.52-3.93c-0.03-1.32-0.57-2.47-1.2-3.25c-0.64-0.78-1.36-1.23-1.89-1.43
					C189.33,88.54,189,88.51,189.01,88.46z"/>
			</g>
		</g>
		<g>
			<g>
				<path style="fill:#455A64;" d="M184.8,85.08c0-0.03,0.25-0.06,0.62,0.16c0.36,0.21,0.81,0.72,0.93,1.5
					c0.12,0.78-0.19,1.68-0.7,2.5c-0.51,0.82-1.18,1.66-2.01,2.4c-1.66,1.5-3.57,2.32-4.98,2.65c-1.42,0.35-2.33,0.26-2.32,0.21
					c-0.01-0.09,0.88-0.14,2.23-0.56c1.34-0.4,3.14-1.24,4.73-2.68c0.8-0.71,1.44-1.5,1.96-2.27c0.51-0.76,0.8-1.55,0.74-2.21
					c-0.06-0.66-0.4-1.14-0.68-1.37C185.02,85.17,184.79,85.12,184.8,85.08z"/>
			</g>
		</g>
	</g>
	<g>
		<path style="fill:#FFBE9D;" d="M156.68,179.57l3.12-22.74l-44.7,8.97l-40.67-14.1l-10.98,11.29l43.28,22.29
			c3.86,1.84,8.21,2.4,12.41,1.58L156.68,179.57z"/>
		<path style="fill:#FFBE9D;" d="M74.43,151.7c0,0-15.55-7.44-16.55-7.69c-0.77-0.19-12.51-0.82-17.86-1.09
			c-2.12-0.11-2.44,3.04-0.33,3.33c0.06,0.01,0.13,0.02,0.2,0.02c2.99,0.25,9.56,1.74,9.56,1.74l-2.99,6.99
			c-0.31,0.72-0.08,1.55,0.55,2.01l9.05,6.69c2.41,1.09,5.23,0.82,7.38-0.72l0,0l3.99,0.82L74.43,151.7z"/>
		<g>
			<path style="fill:#FFBE9D;" d="M46.42,155.42c0.29,1.31,3.4,3.98,5.77,3.98c0.52,0,1.05-0.15,1.43-0.51s0.55-0.95,0.33-1.42
				c-0.14-0.31-0.42-0.53-0.69-0.74c-1.77-1.37-3.53-2.74-5.3-4.11"/>
			<g>
				<path style="fill:#EB996E;" d="M47.97,152.62c0.04-0.06,0.89,0.51,2.21,1.48c0.71,0.53,1.48,1.1,2.31,1.72
					c0.44,0.35,0.88,0.63,1.36,1.08c0.24,0.22,0.45,0.59,0.45,0.97c0.01,0.37-0.12,0.73-0.35,1.03c-0.48,0.59-1.22,0.77-1.85,0.75
					c-0.64-0.02-1.22-0.19-1.74-0.41c-1.03-0.44-1.85-1.04-2.47-1.6c-0.62-0.56-1.04-1.1-1.27-1.52c-0.23-0.42-0.24-0.7-0.21-0.7
					c0.04-0.01,0.12,0.23,0.38,0.59c0.26,0.36,0.71,0.84,1.34,1.35c0.62,0.5,1.44,1.04,2.41,1.43c0.48,0.19,1.02,0.34,1.57,0.35
					c0.53,0.02,1.11-0.15,1.43-0.56c0.32-0.42,0.33-0.98-0.05-1.32c-0.38-0.36-0.89-0.72-1.29-1.05c-0.81-0.65-1.56-1.26-2.24-1.81
					C48.68,153.35,47.92,152.68,47.97,152.62z"/>
			</g>
		</g>
		<g>
			<path style="fill:#EB996E;" d="M58.98,159.46c-0.05,0.04-0.35-0.18-0.68-0.68c-0.33-0.49-0.64-1.29-0.68-2.21
				c-0.04-0.92,0.2-1.74,0.48-2.26c0.28-0.53,0.56-0.77,0.61-0.74c0.13,0.08-0.67,1.29-0.57,2.97
				C58.2,158.24,59.11,159.37,58.98,159.46z"/>
		</g>
		<g>
			<path style="fill:#FFBE9D;" d="M52.76,155.87c0.47,0.73,1.45,1.1,2.29,0.85c0.84-0.24,1.46-1.08,1.47-1.95
				c0-1.14-0.91-2.05-1.76-2.81c-1.3-1.17-2.6-2.34-3.89-3.51"/>
			<g>
				<path style="fill:#EB996E;" d="M50.87,148.44c0.05-0.05,0.67,0.42,1.63,1.22c0.53,0.45,1.09,0.93,1.67,1.44
					c0.61,0.56,1.35,1.11,1.96,1.92c0.3,0.41,0.54,0.88,0.61,1.38c0.08,0.5-0.03,1.01-0.26,1.41c-0.45,0.82-1.32,1.22-2,1.16
					c-0.69-0.04-1.17-0.36-1.42-0.63c-0.26-0.27-0.32-0.47-0.29-0.49c0.04-0.02,0.15,0.14,0.42,0.33c0.27,0.19,0.72,0.42,1.3,0.41
					c0.57,0,1.23-0.35,1.58-1.02c0.37-0.66,0.21-1.54-0.35-2.26c-0.54-0.72-1.27-1.3-1.86-1.87c-0.56-0.53-1.09-1.04-1.6-1.52
					C51.35,149.06,50.82,148.5,50.87,148.44z"/>
			</g>
		</g>
		<g>
			<path style="fill:#FFBE9D;" d="M59.43,147.85c-3.13,0.74-6.14,2-8.87,3.71c-0.16,0.1-0.34,0.22-0.39,0.41
				c-0.07,0.26,0.13,0.51,0.34,0.68c0.8,0.64,1.91,0.75,2.93,0.67c1.02-0.09,2.04-0.34,3.06-0.31c1.78,0.04,3.42,0.89,5.14,1.36
				c1.71,0.47,3.8,0.46,4.98-0.87"/>
			<g>
				<path style="fill:#EB996E;" d="M66.62,153.49c0.01,0.01-0.04,0.09-0.16,0.24c-0.13,0.14-0.33,0.34-0.65,0.52
					c-0.62,0.39-1.69,0.66-2.98,0.53c-1.31-0.1-2.72-0.72-4.29-1.18c-0.79-0.23-1.63-0.39-2.5-0.34c-0.88,0.04-1.79,0.26-2.78,0.33
					c-0.98,0.06-2.04-0.07-2.85-0.68c-0.2-0.15-0.42-0.34-0.5-0.67c-0.04-0.16-0.01-0.36,0.08-0.51c0.09-0.14,0.2-0.23,0.31-0.3
					c0.39-0.25,0.75-0.46,1.12-0.67c1.46-0.83,2.86-1.43,4.04-1.87c1.19-0.44,2.18-0.71,2.87-0.87c0.69-0.16,1.08-0.21,1.09-0.18
					c0.02,0.09-1.5,0.44-3.82,1.39c-1.16,0.48-2.51,1.11-3.94,1.94c-0.35,0.21-0.73,0.43-1.07,0.66c-0.16,0.12-0.21,0.19-0.18,0.29
					c0.02,0.11,0.15,0.26,0.31,0.37c0.66,0.5,1.59,0.63,2.51,0.57c0.93-0.06,1.85-0.27,2.79-0.32c0.95-0.05,1.85,0.14,2.66,0.39
					c1.61,0.5,2.97,1.14,4.2,1.28c1.22,0.17,2.23-0.03,2.84-0.34C66.33,153.78,66.58,153.45,66.62,153.49z"/>
			</g>
		</g>
		<g>
			<path style="fill:#EB996E;" d="M115.79,173.67c-0.13,0.03-0.66-1.74-0.72-4c-0.07-2.27,0.35-4.07,0.49-4.04
				c0.15,0.02-0.04,1.82,0.03,4.03C115.65,171.86,115.94,173.64,115.79,173.67z"/>
		</g>
	</g>
	<g>
		<path style="fill:#C14953;" d="M154.9,146.28l-12.68,14.29c0,0-6.77,49.36-7.26,53.23c-0.48,3.87-1.77,16.27-1.77,19.66
			s-2.81,27.62-2.81,27.62s53.82,11.17,62.82,0l-2.8-20.75l2.44-51.48c0,0,4.04-35.73-14.81-44.02
			C178.03,144.83,166.12,152.01,154.9,146.28z"/>
		<path style="fill:#C14953;" d="M186.67,149.89c0,0-3.71-3.67-15.56-0.6c-12.49,3.24-19.08,14.93-15.98,48.03
			c2.56,27.29,13.35,31.22,13.35,31.22s-5.91-41.17-4.9-58.39c1.28-21.75,23.09-16.34,23.09-16.34
			C189.77,152.81,186.67,149.89,186.67,149.89z"/>
		<polygon style="fill:#C14953;" points="154.9,146.28 143.94,149.3 119.27,164.4 126.3,186.7 140.78,185.11 		"/>
		<g>
			
				<ellipse transform="matrix(0.0926 -0.9957 0.9957 0.0926 -52.6528 301.3085)" style="fill:#C14953;" cx="138.98" cy="179.54" rx="17.86" ry="0.26"/>
		</g>
		<path style="fill:#C14953;" d="M190.83,231.07c0,0-3.5,11.25-15.88-7.33c-12.37-18.58-10.63-10.27-10.63-10.27l-2.54,3.02
			c0,0,13.61,30.66,28.88,25.85L190.83,231.07z"/>
		<polygon style="opacity:0.3;fill:#C14953;" points="140.14,167.12 130.38,186.25 138.44,185.37 		"/>
		<g style="opacity:0.3;">
			<path style="fill:#C14953;" d="M135.66,217.91c7.15,7.8,15.67,14.34,25.05,19.23c3.94,2.06,8.28,3.87,12.69,3.3
				c4.84-0.62,8.98-4.13,11.27-8.43s1.96-6.39,2.5-11.23c0.6-5.34,0.6-12.47,0.88-17.33c0.05-0.86,0.07-1.86,0.07-2.81
				c0-2.12,1.38-3.98,3.41-4.59l0,0c0,0-2.95-1.39-4.93-1.11c-1.98,0.28-3.47,1.93-4.51,3.64c-5.49,9.05-3.1,22.31-13.57,27.95
				c-3.42,1.84-7.4,2.27-11.23,1.65c-8.57-1.4-15.13-7.03-21.45-12.52"/>
		</g>
		<ellipse style="fill:#C14953;" cx="147.5" cy="184.9" rx="4.75" ry="14.28"/>
	</g>
	<g>
		<g>
			<path style="fill:#C14953;" d="M150.04,433.26l1.09,23.51c0,0-23.53,9-23.75,13.37l45.66-0.47l-0.19-36.7L150.04,433.26z"/>
			<g style="opacity:0.6;">
				<path style="fill:#FFFFFF;" d="M165.23,454.65c0.89,0.23,1.51,1.22,1.31,2.11c-0.2,0.9-1.19,1.54-2.08,1.32
					s-1.67-1.38-1.38-2.25c0.29-0.87,1.51-1.55,2.32-1.13"/>
			</g>
			<path style="opacity:0.6;fill:#FFFFFF;" d="M173.03,469.67l-0.02-3.66l-43.86,1.8c0,0-2.02,0.91-1.78,2.33L173.03,469.67z"/>
			<g>
				<path style="fill:#263238;" d="M150.38,456.55c0.01,0.22,1.13,0.31,2.23,1.02c1.12,0.68,1.7,1.64,1.9,1.55
					c0.21-0.04-0.14-1.38-1.49-2.21C151.68,456.06,150.33,456.35,150.38,456.55z"/>
			</g>
			<g>
				<path style="fill:#263238;" d="M145.62,458.58c-0.05,0.22,0.92,0.59,1.69,1.52c0.79,0.91,1,1.93,1.22,1.92
					c0.21,0.03,0.35-1.27-0.63-2.42C146.93,458.45,145.62,458.37,145.62,458.58z"/>
			</g>
			<g>
				<path style="fill:#263238;" d="M142.96,464.34c0.2,0.05,0.5-1.07-0.08-2.29c-0.58-1.22-1.63-1.69-1.73-1.5
					c-0.12,0.18,0.56,0.83,1.02,1.84C142.66,463.38,142.73,464.32,142.96,464.34z"/>
			</g>
			<g>
				<path style="fill:#263238;" d="M150.73,451.16c0.1,0.2,1.12-0.12,2.38-0.04c1.26,0.05,2.25,0.46,2.36,0.27
					c0.13-0.16-0.84-0.98-2.33-1.04C151.66,450.27,150.62,450.99,150.73,451.16z"/>
			</g>
		</g>
		<polygon style="opacity:0.3;" points="150.26,437.92 150.45,442.11 172.89,441.67 172.88,437.9 		"/>
		<g>
			<path style="fill:#263238;" d="M150.6,446.42c0,0.09,0.88,0.22,2.29-0.04c0.7-0.13,1.52-0.37,2.38-0.76
				c0.43-0.2,0.87-0.43,1.31-0.71c0.21-0.14,0.46-0.28,0.69-0.54c0.24-0.24,0.38-0.83,0.09-1.19c-0.24-0.35-0.65-0.5-0.98-0.5
				c-0.34-0.01-0.61,0.06-0.86,0.13c-0.51,0.13-0.98,0.3-1.42,0.5c-0.87,0.41-1.57,0.92-2.09,1.41c-1.05,0.99-1.4,1.83-1.33,1.87
				c0.1,0.07,0.61-0.63,1.68-1.45c0.53-0.41,1.22-0.83,2.03-1.17c0.41-0.17,0.85-0.31,1.31-0.42c0.48-0.13,0.89-0.14,1.02,0.07
				c0.05,0.08,0.05,0.11-0.05,0.26c-0.1,0.13-0.3,0.26-0.5,0.4c-0.4,0.27-0.81,0.5-1.2,0.7c-0.79,0.4-1.55,0.68-2.2,0.87
				C151.45,446.23,150.59,446.3,150.6,446.42z"/>
		</g>
		<g>
			<path style="fill:#263238;" d="M150.89,446.73c0.08,0.03,0.51-0.77,0.58-2.21c0.03-0.72-0.05-1.58-0.34-2.5
				c-0.15-0.46-0.34-0.92-0.6-1.38c-0.27-0.45-0.6-1.05-1.47-1.14c-0.45-0.01-0.82,0.34-0.95,0.65c-0.15,0.31-0.17,0.58-0.23,0.84
				c-0.08,0.53-0.06,1.06,0.01,1.54c0.15,0.97,0.56,1.77,1,2.35c0.9,1.17,1.84,1.43,1.86,1.36c0.07-0.11-0.71-0.54-1.4-1.67
				c-0.34-0.56-0.65-1.29-0.75-2.14c-0.05-0.42-0.05-0.87,0.03-1.32c0.07-0.49,0.24-0.88,0.43-0.83c0.23-0.01,0.62,0.36,0.81,0.74
				c0.24,0.41,0.43,0.82,0.58,1.23c0.29,0.82,0.43,1.61,0.47,2.28C151,445.86,150.77,446.7,150.89,446.73z"/>
		</g>
	</g>
	<g>
		<g>
			<path style="fill:#C14953;" d="M194.28,418.99l18.46,14.6c0,0-8.64,23.67-5.49,26.7l29.59-34.78l-27.83-23.92L194.28,418.99z"/>
			<g style="opacity:0.6;">
				<path style="fill:#FFFFFF;" d="M220.38,421.55c0.76-0.52,1.91-0.34,2.46,0.4c0.55,0.73,0.38,1.91-0.37,2.44
					c-0.75,0.53-2.14,0.36-2.6-0.43c-0.46-0.79-0.18-2.16,0.67-2.49"/>
			</g>
			<path style="opacity:0.6;fill:#FFFFFF;" d="M236.84,425.5l-2.78-2.39l-27.41,34.29c0,0-0.64,2.12,0.6,2.87L236.84,425.5z"/>
			<g>
				<path style="fill:#263238;" d="M212.08,434c0.17,0.14,0.97-0.64,2.23-1.02c1.25-0.4,2.35-0.21,2.42-0.42
					c0.1-0.18-1.13-0.79-2.64-0.32C212.57,432.7,211.9,433.9,212.08,434z"/>
			</g>
			<g>
				<path style="fill:#263238;" d="M210.49,438.93c0.13,0.18,1.05-0.31,2.26-0.28c1.21,0,2.11,0.51,2.25,0.34
					c0.16-0.14-0.73-1.1-2.24-1.12C211.25,437.85,210.33,438.79,210.49,438.93z"/>
			</g>
			<g>
				<path style="fill:#263238;" d="M213.09,444.71c0.17-0.12-0.48-1.08-1.78-1.44c-1.3-0.36-2.35,0.12-2.27,0.32
					c0.06,0.21,1,0.12,2.06,0.43C212.18,444.31,212.93,444.87,213.09,444.71z"/>
			</g>
			<g>
				<path style="fill:#263238;" d="M208.25,430.2c0.22,0.06,0.64-0.92,1.53-1.82c0.86-0.92,1.82-1.4,1.75-1.61
					c-0.04-0.2-1.29-0.01-2.31,1.07C208.18,428.92,208.04,430.17,208.25,430.2z"/>
			</g>
		</g>
		<polygon style="opacity:0.3;" points="197.94,421.87 201.23,424.48 215.61,407.25 212.75,404.78 		"/>
		<g>
			<path style="fill:#263238;" d="M204.58,427.19c0.07,0.06,0.74-0.52,1.47-1.75c0.36-0.61,0.72-1.39,0.99-2.3
				c0.13-0.45,0.24-0.94,0.32-1.45c0.03-0.25,0.09-0.53,0.04-0.87c-0.02-0.34-0.38-0.83-0.84-0.85c-0.42-0.05-0.8,0.17-1.02,0.41
				c-0.23,0.25-0.35,0.5-0.47,0.73c-0.24,0.47-0.42,0.94-0.55,1.4c-0.26,0.92-0.34,1.79-0.31,2.5c0.06,1.44,0.46,2.26,0.54,2.23
				c0.12-0.03-0.08-0.87,0.01-2.22c0.04-0.67,0.17-1.46,0.45-2.3c0.14-0.42,0.32-0.84,0.54-1.26c0.22-0.45,0.48-0.77,0.73-0.72
				c0.09,0.02,0.12,0.04,0.16,0.2c0.03,0.17,0,0.4-0.03,0.64c-0.06,0.48-0.15,0.94-0.26,1.37c-0.22,0.86-0.5,1.62-0.79,2.23
				C204.99,426.42,204.48,427.11,204.58,427.19z"/>
		</g>
		<g>
			<path style="fill:#263238;" d="M205.01,427.18c0.08-0.04-0.24-0.89-1.29-1.89c-0.52-0.49-1.23-1-2.11-1.38
				c-0.44-0.19-0.92-0.35-1.44-0.46c-0.52-0.09-1.19-0.23-1.82,0.36c-0.31,0.33-0.28,0.85-0.13,1.14c0.14,0.32,0.32,0.51,0.49,0.72
				c0.35,0.41,0.76,0.74,1.17,1c0.83,0.52,1.71,0.74,2.43,0.79c1.48,0.09,2.29-0.45,2.24-0.51c-0.04-0.13-0.87,0.18-2.18-0.03
				c-0.65-0.11-1.4-0.36-2.11-0.84c-0.35-0.24-0.69-0.54-0.98-0.89c-0.32-0.37-0.5-0.76-0.35-0.87c0.14-0.18,0.67-0.23,1.09-0.12
				c0.46,0.09,0.9,0.22,1.31,0.37c0.81,0.32,1.5,0.73,2.03,1.14C204.42,426.52,204.9,427.25,205.01,427.18z"/>
		</g>
	</g>
	<g>
		<path style="fill:#263238;" d="M143.09,333.8c0,0,1.22-56.15,0-56.15s-9.88-4.94-9.88-4.94l-10.82,83.45
			c0,0-0.97,9.37,10.62,15.97s63.43,52.69,63.43,52.69l17.54-21.36c0,0-34.11-35.55-48.04-47.3
			C155.04,346.96,143.09,333.8,143.09,333.8z"/>
		<g>
			<path style="fill:#263238;" d="M174.86,320.71l1.18-8.89c0,0,8.54-17.97,9.77-25.67c1.22-7.7,0.41-24.25,0.41-24.25h-53.95
				c0,0,0.23,60.91,6.74,77.99c0,0,3.31,32.7,3.79,35.44c1.03,5.82,4.63,65.36,4.63,65.36l27.2-0.99c0,0,2.36-54.74,0.47-70.28
				c-0.94-7.69-1.38-15.89-1.58-22.68C173.27,338.05,173.72,329.35,174.86,320.71z"/>
			<g>
				<path style="fill:#455A64;" d="M133.75,279.67c0.01,0,0.02,0.09,0.03,0.27c0.01,0.21,0.03,0.47,0.05,0.79
					c0.03,0.73,0.08,1.75,0.14,3.03c0.1,2.63,0.3,6.44,0.57,11.14c0.54,9.4,1.55,22.37,3.03,36.66c1.48,14.29,3.08,27.21,4.23,36.55
					c0.57,4.64,1.03,8.42,1.35,11.07c0.15,1.28,0.26,2.28,0.35,3.01c0.03,0.32,0.06,0.58,0.08,0.79c0.01,0.18,0.02,0.27,0.01,0.27
					c-0.01,0-0.03-0.09-0.06-0.26c-0.03-0.21-0.08-0.46-0.13-0.78c-0.11-0.73-0.26-1.73-0.44-3c-0.36-2.65-0.88-6.42-1.52-11.05
					c-1.25-9.34-2.9-22.25-4.38-36.55c-1.49-14.3-2.44-27.28-2.88-36.69c-0.22-4.71-0.36-8.52-0.4-11.15
					c-0.02-1.29-0.03-2.3-0.05-3.03c0-0.32,0-0.58,0-0.79C133.74,279.76,133.74,279.67,133.75,279.67z"/>
			</g>
			<g>
				<path style="fill:#455A64;" d="M173.48,351.76c0.02,0,0.07,0.3,0.16,0.88c0.09,0.63,0.2,1.47,0.35,2.54
					c0.27,2.21,0.61,5.42,0.92,9.4c0.64,7.95,1.13,18.96,1.31,31.12c0.14,12.17-0.05,23.19-0.48,31.15c-0.2,3.98-0.46,7.2-0.67,9.42
					c-0.12,1.07-0.22,1.92-0.29,2.55c-0.07,0.58-0.12,0.89-0.13,0.88c-0.02,0-0.01-0.31,0.03-0.9c0.05-0.63,0.11-1.48,0.19-2.56
					c0.15-2.22,0.35-5.44,0.51-9.42c0.34-7.96,0.47-18.97,0.33-31.13c-0.18-12.15-0.61-23.15-1.15-31.1
					c-0.26-3.97-0.54-7.18-0.75-9.4c-0.11-1.07-0.19-1.92-0.25-2.55C173.48,352.07,173.46,351.76,173.48,351.76z"/>
			</g>
		</g>
	</g>
	<path style="fill:#263238;" d="M184.09,148.64c0,0,8.83,2.36,10.71,15.51c1.88,13.16-1.6,16.92-1.6,16.92s1.43-24.5-9.54-27.84
		l0.43-4.11"/>
	<g>
		<polygon style="fill:#263238;" points="123.93,191.62 78.35,190.73 78.88,192.94 123.71,193.6 		"/>
		<g>
			<path style="fill:#C14953;" d="M179.2,152.77c-1.7-0.45-3.5-0.23-5.11,0.45c-3.69,1.56-10.45,6.03-10.93,18.64
				c-0.78,20.38-0.78,20.38-0.78,20.38l29.15,3.81C191.52,196.05,194,156.71,179.2,152.77z"/>
			<path style="fill:#FFBE9D;" d="M125.55,195.93l36.96,11.11l0.55-14.88l22.13,3.22l-1.23,24.2c-0.26,7.1-5.23,13.15-12.15,14.77
				l0,0c-3.87,0.91-7.94,0.32-11.39-1.64l-39.28-22.33L125.55,195.93z"/>
			<g>
				<path style="fill:#263238;" d="M191.52,196.05c-0.01-0.01-0.02-0.12-0.03-0.35c-0.01-0.25-0.02-0.57-0.04-0.98
					c-0.03-0.89-0.08-2.14-0.13-3.73c-0.1-3.25-0.25-7.89-0.43-13.62c-0.08-2.87-0.17-6-0.27-9.36c-0.02-0.84-0.05-1.7-0.07-2.57
					c-0.04-0.43-0.09-0.86-0.13-1.29c-0.09-0.43-0.16-0.86-0.27-1.29c-0.44-1.72-1.26-3.38-2.41-4.86c-2.3-2.91-6-5.13-10.09-5.2
					c-2.03-0.05-4.07,0.57-5.85,1.67c-1.79,1.09-3.31,2.67-4.52,4.46c-1.77,2.58-2.76,5.55-3.33,8.49c-0.58,2.96-0.76,5.91-0.9,8.78
					c-0.16,5.74-0.32,11.14-0.46,16.05l-0.19-0.22c8.72,1.19,15.97,2.18,21.07,2.88c2.53,0.35,4.52,0.63,5.92,0.83
					c0.66,0.1,1.19,0.17,1.57,0.23C191.32,196.01,191.51,196.04,191.52,196.05c0.01,0.01-0.17-0.01-0.51-0.04
					c-0.38-0.04-0.89-0.1-1.53-0.18c-1.39-0.17-3.37-0.41-5.88-0.71c-5.15-0.64-12.46-1.56-21.25-2.66l-0.2-0.02l0-0.2
					c0.12-4.91,0.21-10.31,0.4-16.06c0.14-2.87,0.32-5.85,0.9-8.85c0.58-2.99,1.59-6.04,3.41-8.69c1.25-1.84,2.81-3.47,4.68-4.6
					c1.85-1.15,4-1.8,6.13-1.74c4.27,0.09,8.08,2.4,10.46,5.42c1.19,1.53,2.03,3.26,2.48,5.04c0.11,0.44,0.18,0.9,0.27,1.34
					c0.04,0.45,0.09,0.9,0.13,1.34c0.02,0.88,0.04,1.74,0.06,2.6c0.07,3.4,0.13,6.57,0.19,9.46c0.1,5.73,0.18,10.39,0.24,13.64
					c0.02,1.57,0.04,2.8,0.05,3.68c0,0.39,0,0.71,0.01,0.95C191.53,195.95,191.53,196.05,191.52,196.05z"/>
			</g>
		</g>
		<path style="fill:#FFBE9D;" d="M126.3,196.37l-8.88-6.57c-1.62-1.2-4.14-0.95-6.15-1.13c-3.98-0.36-10.54,2.05-10.79,2.46
			l2.68,2.14l-17.26-0.53c0,0,1.48,3.6,6.31,3.97c0,0,0.56,3.9,5.57,4.64c0,0,1.3,3.15,4.08,4.08c0,0,0.56,3.53,5.01,3.34
			l15.11,1.71L126.3,196.37z"/>
		<g>
			
				<ellipse transform="matrix(0.9983 0.0587 -0.0587 0.9983 11.7381 -5.3891)" style="fill:#EB996E;" cx="97.57" cy="197.03" rx="5.46" ry="0.26"/>
		</g>
		<g>
			<ellipse style="fill:#EB996E;" cx="102.6" cy="201.51" rx="4.78" ry="0.26"/>
		</g>
		<g>
			<ellipse style="fill:#EB996E;" cx="107.29" cy="205.43" rx="4.78" ry="0.26"/>
		</g>
		<g>
			<path style="fill:#EB996E;" d="M164.95,214.6c-0.13,0.06-0.92-1.55-1.64-3.63c-0.72-2.08-1.09-3.83-0.96-3.86
				c0.14-0.04,0.73,1.63,1.45,3.69C164.51,212.86,165.09,214.54,164.95,214.6z"/>
		</g>
		<g>
			<path style="fill:#EB996E;" d="M167.63,213.16c-0.12,0.09-1.31-1.36-2.79-3.13c-1.47-1.77-2.68-3.21-2.57-3.31
				c0.1-0.1,1.48,1.19,2.97,2.98C166.73,211.49,167.74,213.08,167.63,213.16z"/>
		</g>
	</g>
</g>
</svg>
